<mxfile host="Electron" agent="Mozilla/5.0 (Windows NT 10.0; WOW64) AppleWebKit/537.36 (KHTML, like Gecko) draw.io/24.7.5 Chrome/126.0.6478.183 Electron/31.3.0 Safari/537.36" version="24.7.5">
  <diagram name="Page-1" id="KVwNFYkB-S5srtKNJNlk">
    <mxGraphModel dx="989" dy="656" grid="1" gridSize="10" guides="1" tooltips="1" connect="1" arrows="1" fold="1" page="1" pageScale="1" pageWidth="850" pageHeight="1100" math="0" shadow="0">
      <root>
        <mxCell id="0" />
        <mxCell id="1" parent="0" />
        <mxCell id="Nef6qseqdZZENVeDF5mM-12" style="edgeStyle=none;shape=connector;rounded=0;orthogonalLoop=1;jettySize=auto;html=1;exitX=1;exitY=0;exitDx=0;exitDy=0;entryX=0;entryY=0.5;entryDx=0;entryDy=0;strokeColor=default;align=center;verticalAlign=middle;fontFamily=Helvetica;fontSize=11;fontColor=default;labelBackgroundColor=default;endArrow=none;endFill=0;" parent="1" source="Nef6qseqdZZENVeDF5mM-1" target="Nef6qseqdZZENVeDF5mM-9" edge="1">
          <mxGeometry relative="1" as="geometry" />
        </mxCell>
        <mxCell id="Nef6qseqdZZENVeDF5mM-22" style="edgeStyle=none;shape=connector;rounded=0;orthogonalLoop=1;jettySize=auto;html=1;exitX=1;exitY=1;exitDx=0;exitDy=0;entryX=0;entryY=0;entryDx=0;entryDy=0;strokeColor=default;align=center;verticalAlign=middle;fontFamily=Helvetica;fontSize=11;fontColor=default;labelBackgroundColor=default;endArrow=none;endFill=0;" parent="1" source="Nef6qseqdZZENVeDF5mM-1" target="Nef6qseqdZZENVeDF5mM-7" edge="1">
          <mxGeometry relative="1" as="geometry" />
        </mxCell>
        <mxCell id="Nef6qseqdZZENVeDF5mM-31" style="edgeStyle=none;shape=connector;rounded=0;orthogonalLoop=1;jettySize=auto;html=1;exitX=1;exitY=1;exitDx=0;exitDy=0;strokeColor=default;align=center;verticalAlign=middle;fontFamily=Helvetica;fontSize=11;fontColor=default;labelBackgroundColor=default;endArrow=none;endFill=0;" parent="1" source="Nef6qseqdZZENVeDF5mM-1" edge="1">
          <mxGeometry relative="1" as="geometry">
            <mxPoint x="154" y="290" as="targetPoint" />
          </mxGeometry>
        </mxCell>
        <mxCell id="Nef6qseqdZZENVeDF5mM-32" style="edgeStyle=none;shape=connector;rounded=0;orthogonalLoop=1;jettySize=auto;html=1;exitX=1;exitY=1;exitDx=0;exitDy=0;entryX=0;entryY=0.5;entryDx=0;entryDy=0;strokeColor=default;align=center;verticalAlign=middle;fontFamily=Helvetica;fontSize=11;fontColor=default;labelBackgroundColor=default;endArrow=none;endFill=0;" parent="1" source="Nef6qseqdZZENVeDF5mM-1" target="Nef6qseqdZZENVeDF5mM-4" edge="1">
          <mxGeometry relative="1" as="geometry" />
        </mxCell>
        <mxCell id="Nef6qseqdZZENVeDF5mM-1" value="" style="ellipse;whiteSpace=wrap;html=1;aspect=fixed;fillColor=#fff2cc;strokeColor=#d6b656;" parent="1" vertex="1">
          <mxGeometry x="120" y="120" width="40" height="40" as="geometry" />
        </mxCell>
        <mxCell id="Nef6qseqdZZENVeDF5mM-17" style="edgeStyle=none;shape=connector;rounded=0;orthogonalLoop=1;jettySize=auto;html=1;exitX=0;exitY=0.5;exitDx=0;exitDy=0;entryX=1;entryY=1;entryDx=0;entryDy=0;strokeColor=default;align=center;verticalAlign=middle;fontFamily=Helvetica;fontSize=11;fontColor=default;labelBackgroundColor=default;endArrow=none;endFill=0;" parent="1" source="Nef6qseqdZZENVeDF5mM-2" target="Nef6qseqdZZENVeDF5mM-6" edge="1">
          <mxGeometry relative="1" as="geometry" />
        </mxCell>
        <mxCell id="Nef6qseqdZZENVeDF5mM-27" style="edgeStyle=none;shape=connector;rounded=0;orthogonalLoop=1;jettySize=auto;html=1;exitX=0.5;exitY=0;exitDx=0;exitDy=0;entryX=1;entryY=0.5;entryDx=0;entryDy=0;strokeColor=default;align=center;verticalAlign=middle;fontFamily=Helvetica;fontSize=11;fontColor=default;labelBackgroundColor=default;endArrow=none;endFill=0;" parent="1" source="Nef6qseqdZZENVeDF5mM-2" target="Nef6qseqdZZENVeDF5mM-5" edge="1">
          <mxGeometry relative="1" as="geometry" />
        </mxCell>
        <mxCell id="Nef6qseqdZZENVeDF5mM-40" style="edgeStyle=none;shape=connector;rounded=0;orthogonalLoop=1;jettySize=auto;html=1;exitX=0.5;exitY=0;exitDx=0;exitDy=0;entryX=1;entryY=1;entryDx=0;entryDy=0;strokeColor=default;align=center;verticalAlign=middle;fontFamily=Helvetica;fontSize=11;fontColor=default;labelBackgroundColor=default;endArrow=none;endFill=0;" parent="1" source="Nef6qseqdZZENVeDF5mM-2" target="Nef6qseqdZZENVeDF5mM-1" edge="1">
          <mxGeometry relative="1" as="geometry" />
        </mxCell>
        <mxCell id="Nef6qseqdZZENVeDF5mM-2" value="" style="ellipse;whiteSpace=wrap;html=1;aspect=fixed;fillColor=#fff2cc;strokeColor=#d6b656;" parent="1" vertex="1">
          <mxGeometry x="200" y="320" width="40" height="40" as="geometry" />
        </mxCell>
        <mxCell id="Nef6qseqdZZENVeDF5mM-30" style="edgeStyle=none;shape=connector;rounded=0;orthogonalLoop=1;jettySize=auto;html=1;exitX=0;exitY=1;exitDx=0;exitDy=0;entryX=1;entryY=1;entryDx=0;entryDy=0;strokeColor=default;align=center;verticalAlign=middle;fontFamily=Helvetica;fontSize=11;fontColor=default;labelBackgroundColor=default;endArrow=none;endFill=0;" parent="1" source="Nef6qseqdZZENVeDF5mM-3" target="Nef6qseqdZZENVeDF5mM-1" edge="1">
          <mxGeometry relative="1" as="geometry" />
        </mxCell>
        <mxCell id="Nef6qseqdZZENVeDF5mM-39" style="edgeStyle=none;shape=connector;rounded=0;orthogonalLoop=1;jettySize=auto;html=1;exitX=0;exitY=1;exitDx=0;exitDy=0;entryX=0.5;entryY=0;entryDx=0;entryDy=0;strokeColor=default;align=center;verticalAlign=middle;fontFamily=Helvetica;fontSize=11;fontColor=default;labelBackgroundColor=default;endArrow=none;endFill=0;" parent="1" source="Nef6qseqdZZENVeDF5mM-3" target="Nef6qseqdZZENVeDF5mM-2" edge="1">
          <mxGeometry relative="1" as="geometry" />
        </mxCell>
        <mxCell id="Nef6qseqdZZENVeDF5mM-3" value="" style="ellipse;whiteSpace=wrap;html=1;aspect=fixed;fillColor=#fff2cc;strokeColor=#d6b656;" parent="1" vertex="1">
          <mxGeometry x="280" y="120" width="40" height="40" as="geometry" />
        </mxCell>
        <mxCell id="Nef6qseqdZZENVeDF5mM-15" style="edgeStyle=none;shape=connector;rounded=0;orthogonalLoop=1;jettySize=auto;html=1;exitX=0.5;exitY=1;exitDx=0;exitDy=0;entryX=1;entryY=0;entryDx=0;entryDy=0;strokeColor=default;align=center;verticalAlign=middle;fontFamily=Helvetica;fontSize=11;fontColor=default;labelBackgroundColor=default;endArrow=none;endFill=0;" parent="1" source="Nef6qseqdZZENVeDF5mM-4" target="Nef6qseqdZZENVeDF5mM-7" edge="1">
          <mxGeometry relative="1" as="geometry" />
        </mxCell>
        <mxCell id="Nef6qseqdZZENVeDF5mM-26" style="edgeStyle=none;shape=connector;rounded=0;orthogonalLoop=1;jettySize=auto;html=1;exitX=0;exitY=0.5;exitDx=0;exitDy=0;entryX=0.5;entryY=0;entryDx=0;entryDy=0;strokeColor=default;align=center;verticalAlign=middle;fontFamily=Helvetica;fontSize=11;fontColor=default;labelBackgroundColor=default;endArrow=none;endFill=0;" parent="1" source="Nef6qseqdZZENVeDF5mM-4" target="Nef6qseqdZZENVeDF5mM-2" edge="1">
          <mxGeometry relative="1" as="geometry" />
        </mxCell>
        <mxCell id="Nef6qseqdZZENVeDF5mM-34" style="edgeStyle=none;shape=connector;rounded=0;orthogonalLoop=1;jettySize=auto;html=1;exitX=0;exitY=0.5;exitDx=0;exitDy=0;entryX=1;entryY=0;entryDx=0;entryDy=0;strokeColor=default;align=center;verticalAlign=middle;fontFamily=Helvetica;fontSize=11;fontColor=default;labelBackgroundColor=default;endArrow=none;endFill=0;" parent="1" source="Nef6qseqdZZENVeDF5mM-4" target="Nef6qseqdZZENVeDF5mM-6" edge="1">
          <mxGeometry relative="1" as="geometry" />
        </mxCell>
        <mxCell id="Nef6qseqdZZENVeDF5mM-4" value="" style="ellipse;whiteSpace=wrap;html=1;aspect=fixed;fillColor=#fff2cc;strokeColor=#d6b656;" parent="1" vertex="1">
          <mxGeometry x="320" y="200" width="40" height="40" as="geometry" />
        </mxCell>
        <mxCell id="Nef6qseqdZZENVeDF5mM-10" style="rounded=0;orthogonalLoop=1;jettySize=auto;html=1;exitX=0.5;exitY=0;exitDx=0;exitDy=0;entryX=0;entryY=1;entryDx=0;entryDy=0;endArrow=none;endFill=0;" parent="1" source="Nef6qseqdZZENVeDF5mM-5" target="Nef6qseqdZZENVeDF5mM-1" edge="1">
          <mxGeometry relative="1" as="geometry" />
        </mxCell>
        <mxCell id="Nef6qseqdZZENVeDF5mM-21" style="edgeStyle=none;shape=connector;rounded=0;orthogonalLoop=1;jettySize=auto;html=1;exitX=1;exitY=0.5;exitDx=0;exitDy=0;entryX=0;entryY=0.5;entryDx=0;entryDy=0;strokeColor=default;align=center;verticalAlign=middle;fontFamily=Helvetica;fontSize=11;fontColor=default;labelBackgroundColor=default;endArrow=none;endFill=0;" parent="1" source="Nef6qseqdZZENVeDF5mM-5" target="Nef6qseqdZZENVeDF5mM-4" edge="1">
          <mxGeometry relative="1" as="geometry" />
        </mxCell>
        <mxCell id="Nef6qseqdZZENVeDF5mM-24" style="edgeStyle=none;shape=connector;rounded=0;orthogonalLoop=1;jettySize=auto;html=1;exitX=1;exitY=0.5;exitDx=0;exitDy=0;entryX=0.5;entryY=1;entryDx=0;entryDy=0;strokeColor=default;align=center;verticalAlign=middle;fontFamily=Helvetica;fontSize=11;fontColor=default;labelBackgroundColor=default;endArrow=none;endFill=0;" parent="1" source="Nef6qseqdZZENVeDF5mM-5" target="Nef6qseqdZZENVeDF5mM-9" edge="1">
          <mxGeometry relative="1" as="geometry" />
        </mxCell>
        <mxCell id="Nef6qseqdZZENVeDF5mM-38" style="edgeStyle=none;shape=connector;rounded=0;orthogonalLoop=1;jettySize=auto;html=1;exitX=1;exitY=0.5;exitDx=0;exitDy=0;entryX=0;entryY=1;entryDx=0;entryDy=0;strokeColor=default;align=center;verticalAlign=middle;fontFamily=Helvetica;fontSize=11;fontColor=default;labelBackgroundColor=default;endArrow=none;endFill=0;" parent="1" source="Nef6qseqdZZENVeDF5mM-5" target="Nef6qseqdZZENVeDF5mM-3" edge="1">
          <mxGeometry relative="1" as="geometry" />
        </mxCell>
        <mxCell id="Nef6qseqdZZENVeDF5mM-5" value="" style="ellipse;whiteSpace=wrap;html=1;aspect=fixed;fillColor=#fff2cc;strokeColor=#d6b656;" parent="1" vertex="1">
          <mxGeometry x="80" y="200" width="40" height="40" as="geometry" />
        </mxCell>
        <mxCell id="Nef6qseqdZZENVeDF5mM-23" style="edgeStyle=none;shape=connector;rounded=0;orthogonalLoop=1;jettySize=auto;html=1;exitX=1;exitY=0;exitDx=0;exitDy=0;entryX=0;entryY=1;entryDx=0;entryDy=0;strokeColor=default;align=center;verticalAlign=middle;fontFamily=Helvetica;fontSize=11;fontColor=default;labelBackgroundColor=default;endArrow=none;endFill=0;" parent="1" source="Nef6qseqdZZENVeDF5mM-6" target="Nef6qseqdZZENVeDF5mM-3" edge="1">
          <mxGeometry relative="1" as="geometry" />
        </mxCell>
        <mxCell id="Nef6qseqdZZENVeDF5mM-28" style="edgeStyle=none;shape=connector;rounded=0;orthogonalLoop=1;jettySize=auto;html=1;exitX=1;exitY=0;exitDx=0;exitDy=0;strokeColor=default;align=center;verticalAlign=middle;fontFamily=Helvetica;fontSize=11;fontColor=default;labelBackgroundColor=default;endArrow=none;endFill=0;" parent="1" source="Nef6qseqdZZENVeDF5mM-6" edge="1">
          <mxGeometry relative="1" as="geometry">
            <mxPoint x="280" y="286" as="targetPoint" />
          </mxGeometry>
        </mxCell>
        <mxCell id="Nef6qseqdZZENVeDF5mM-35" style="edgeStyle=none;shape=connector;rounded=0;orthogonalLoop=1;jettySize=auto;html=1;exitX=1;exitY=0;exitDx=0;exitDy=0;entryX=0.5;entryY=1;entryDx=0;entryDy=0;strokeColor=default;align=center;verticalAlign=middle;fontFamily=Helvetica;fontSize=11;fontColor=default;labelBackgroundColor=default;endArrow=none;endFill=0;" parent="1" source="Nef6qseqdZZENVeDF5mM-6" target="Nef6qseqdZZENVeDF5mM-9" edge="1">
          <mxGeometry relative="1" as="geometry" />
        </mxCell>
        <mxCell id="Nef6qseqdZZENVeDF5mM-6" value="" style="ellipse;whiteSpace=wrap;html=1;aspect=fixed;fillColor=#fff2cc;strokeColor=#d6b656;" parent="1" vertex="1">
          <mxGeometry x="120" y="280" width="40" height="40" as="geometry" />
        </mxCell>
        <mxCell id="Nef6qseqdZZENVeDF5mM-16" style="edgeStyle=none;shape=connector;rounded=0;orthogonalLoop=1;jettySize=auto;html=1;exitX=0;exitY=1;exitDx=0;exitDy=0;entryX=1;entryY=0.5;entryDx=0;entryDy=0;strokeColor=default;align=center;verticalAlign=middle;fontFamily=Helvetica;fontSize=11;fontColor=default;labelBackgroundColor=default;endArrow=none;endFill=0;" parent="1" source="Nef6qseqdZZENVeDF5mM-7" target="Nef6qseqdZZENVeDF5mM-2" edge="1">
          <mxGeometry relative="1" as="geometry" />
        </mxCell>
        <mxCell id="Nef6qseqdZZENVeDF5mM-29" style="edgeStyle=none;shape=connector;rounded=0;orthogonalLoop=1;jettySize=auto;html=1;exitX=0;exitY=0;exitDx=0;exitDy=0;entryX=0;entryY=1;entryDx=0;entryDy=0;strokeColor=default;align=center;verticalAlign=middle;fontFamily=Helvetica;fontSize=11;fontColor=default;labelBackgroundColor=default;endArrow=none;endFill=0;" parent="1" source="Nef6qseqdZZENVeDF5mM-7" target="Nef6qseqdZZENVeDF5mM-3" edge="1">
          <mxGeometry relative="1" as="geometry" />
        </mxCell>
        <mxCell id="Nef6qseqdZZENVeDF5mM-37" style="edgeStyle=none;shape=connector;rounded=0;orthogonalLoop=1;jettySize=auto;html=1;exitX=0;exitY=0;exitDx=0;exitDy=0;entryX=1;entryY=0.5;entryDx=0;entryDy=0;strokeColor=default;align=center;verticalAlign=middle;fontFamily=Helvetica;fontSize=11;fontColor=default;labelBackgroundColor=default;endArrow=none;endFill=0;" parent="1" source="Nef6qseqdZZENVeDF5mM-7" target="Nef6qseqdZZENVeDF5mM-5" edge="1">
          <mxGeometry relative="1" as="geometry" />
        </mxCell>
        <mxCell id="Nef6qseqdZZENVeDF5mM-7" value="" style="ellipse;whiteSpace=wrap;html=1;aspect=fixed;fillColor=#fff2cc;strokeColor=#d6b656;" parent="1" vertex="1">
          <mxGeometry x="280" y="280" width="40" height="40" as="geometry" />
        </mxCell>
        <mxCell id="Nef6qseqdZZENVeDF5mM-19" style="edgeStyle=none;shape=connector;rounded=0;orthogonalLoop=1;jettySize=auto;html=1;exitX=0.5;exitY=1;exitDx=0;exitDy=0;entryX=0.5;entryY=0;entryDx=0;entryDy=0;strokeColor=default;align=center;verticalAlign=middle;fontFamily=Helvetica;fontSize=11;fontColor=default;labelBackgroundColor=default;endArrow=none;endFill=0;" parent="1" source="Nef6qseqdZZENVeDF5mM-9" target="Nef6qseqdZZENVeDF5mM-2" edge="1">
          <mxGeometry relative="1" as="geometry" />
        </mxCell>
        <mxCell id="Nef6qseqdZZENVeDF5mM-25" style="edgeStyle=none;shape=connector;rounded=0;orthogonalLoop=1;jettySize=auto;html=1;exitX=0.5;exitY=1;exitDx=0;exitDy=0;strokeColor=default;align=center;verticalAlign=middle;fontFamily=Helvetica;fontSize=11;fontColor=default;labelBackgroundColor=default;endArrow=none;endFill=0;" parent="1" source="Nef6qseqdZZENVeDF5mM-9" edge="1">
          <mxGeometry relative="1" as="geometry">
            <mxPoint x="320" y="220" as="targetPoint" />
          </mxGeometry>
        </mxCell>
        <mxCell id="Nef6qseqdZZENVeDF5mM-36" style="edgeStyle=none;shape=connector;rounded=0;orthogonalLoop=1;jettySize=auto;html=1;exitX=0.5;exitY=1;exitDx=0;exitDy=0;entryX=0;entryY=0;entryDx=0;entryDy=0;strokeColor=default;align=center;verticalAlign=middle;fontFamily=Helvetica;fontSize=11;fontColor=default;labelBackgroundColor=default;endArrow=none;endFill=0;" parent="1" source="Nef6qseqdZZENVeDF5mM-9" target="Nef6qseqdZZENVeDF5mM-7" edge="1">
          <mxGeometry relative="1" as="geometry" />
        </mxCell>
        <mxCell id="Nef6qseqdZZENVeDF5mM-9" value="" style="ellipse;whiteSpace=wrap;html=1;aspect=fixed;fillColor=#fff2cc;strokeColor=#d6b656;" parent="1" vertex="1">
          <mxGeometry x="200" y="80" width="40" height="40" as="geometry" />
        </mxCell>
        <mxCell id="Nef6qseqdZZENVeDF5mM-13" style="edgeStyle=none;shape=connector;rounded=0;orthogonalLoop=1;jettySize=auto;html=1;exitX=1;exitY=0.5;exitDx=0;exitDy=0;entryX=0.325;entryY=0.2;entryDx=0;entryDy=0;entryPerimeter=0;strokeColor=default;align=center;verticalAlign=middle;fontFamily=Helvetica;fontSize=11;fontColor=default;labelBackgroundColor=default;endArrow=none;endFill=0;" parent="1" source="Nef6qseqdZZENVeDF5mM-9" target="Nef6qseqdZZENVeDF5mM-3" edge="1">
          <mxGeometry relative="1" as="geometry" />
        </mxCell>
        <mxCell id="Nef6qseqdZZENVeDF5mM-14" style="edgeStyle=none;shape=connector;rounded=0;orthogonalLoop=1;jettySize=auto;html=1;exitX=1;exitY=1;exitDx=0;exitDy=0;entryX=0.35;entryY=0.125;entryDx=0;entryDy=0;entryPerimeter=0;strokeColor=default;align=center;verticalAlign=middle;fontFamily=Helvetica;fontSize=11;fontColor=default;labelBackgroundColor=default;endArrow=none;endFill=0;" parent="1" source="Nef6qseqdZZENVeDF5mM-3" target="Nef6qseqdZZENVeDF5mM-4" edge="1">
          <mxGeometry relative="1" as="geometry" />
        </mxCell>
        <mxCell id="Nef6qseqdZZENVeDF5mM-18" style="edgeStyle=none;shape=connector;rounded=0;orthogonalLoop=1;jettySize=auto;html=1;exitX=0;exitY=0;exitDx=0;exitDy=0;entryX=0.675;entryY=1.075;entryDx=0;entryDy=0;entryPerimeter=0;strokeColor=default;align=center;verticalAlign=middle;fontFamily=Helvetica;fontSize=11;fontColor=default;labelBackgroundColor=default;endArrow=none;endFill=0;" parent="1" source="Nef6qseqdZZENVeDF5mM-6" target="Nef6qseqdZZENVeDF5mM-5" edge="1">
          <mxGeometry relative="1" as="geometry" />
        </mxCell>
        <mxCell id="Nef6qseqdZZENVeDF5mM-68" style="edgeStyle=none;shape=connector;rounded=0;orthogonalLoop=1;jettySize=auto;html=1;exitX=1;exitY=1;exitDx=0;exitDy=0;entryX=0;entryY=0;entryDx=0;entryDy=0;strokeColor=default;align=center;verticalAlign=middle;fontFamily=Helvetica;fontSize=11;fontColor=default;labelBackgroundColor=default;endArrow=none;endFill=0;" parent="1" source="Nef6qseqdZZENVeDF5mM-58" target="Nef6qseqdZZENVeDF5mM-66" edge="1">
          <mxGeometry relative="1" as="geometry" />
        </mxCell>
        <mxCell id="Nef6qseqdZZENVeDF5mM-58" value="" style="ellipse;whiteSpace=wrap;html=1;aspect=fixed;fillColor=#fff2cc;strokeColor=#d6b656;" parent="1" vertex="1">
          <mxGeometry x="480" y="120" width="40" height="40" as="geometry" />
        </mxCell>
        <mxCell id="Nef6qseqdZZENVeDF5mM-73" style="edgeStyle=none;shape=connector;rounded=0;orthogonalLoop=1;jettySize=auto;html=1;exitX=0.5;exitY=0;exitDx=0;exitDy=0;strokeColor=default;align=center;verticalAlign=middle;fontFamily=Helvetica;fontSize=11;fontColor=default;labelBackgroundColor=default;endArrow=none;endFill=0;" parent="1" source="Nef6qseqdZZENVeDF5mM-59" edge="1">
          <mxGeometry relative="1" as="geometry">
            <mxPoint x="580" y="240" as="targetPoint" />
          </mxGeometry>
        </mxCell>
        <mxCell id="Nef6qseqdZZENVeDF5mM-59" value="" style="ellipse;whiteSpace=wrap;html=1;aspect=fixed;fillColor=#fff2cc;strokeColor=#d6b656;" parent="1" vertex="1">
          <mxGeometry x="560" y="320" width="40" height="40" as="geometry" />
        </mxCell>
        <mxCell id="Nef6qseqdZZENVeDF5mM-70" style="edgeStyle=none;shape=connector;rounded=0;orthogonalLoop=1;jettySize=auto;html=1;exitX=0;exitY=1;exitDx=0;exitDy=0;entryX=1;entryY=0;entryDx=0;entryDy=0;strokeColor=default;align=center;verticalAlign=middle;fontFamily=Helvetica;fontSize=11;fontColor=default;labelBackgroundColor=default;endArrow=none;endFill=0;" parent="1" source="Nef6qseqdZZENVeDF5mM-60" target="Nef6qseqdZZENVeDF5mM-66" edge="1">
          <mxGeometry relative="1" as="geometry" />
        </mxCell>
        <mxCell id="Nef6qseqdZZENVeDF5mM-60" value="" style="ellipse;whiteSpace=wrap;html=1;aspect=fixed;fillColor=#fff2cc;strokeColor=#d6b656;" parent="1" vertex="1">
          <mxGeometry x="640" y="120" width="40" height="40" as="geometry" />
        </mxCell>
        <mxCell id="Nef6qseqdZZENVeDF5mM-71" style="edgeStyle=none;shape=connector;rounded=0;orthogonalLoop=1;jettySize=auto;html=1;exitX=0;exitY=0.5;exitDx=0;exitDy=0;entryX=1;entryY=0.5;entryDx=0;entryDy=0;strokeColor=default;align=center;verticalAlign=middle;fontFamily=Helvetica;fontSize=11;fontColor=default;labelBackgroundColor=default;endArrow=none;endFill=0;" parent="1" source="Nef6qseqdZZENVeDF5mM-61" target="Nef6qseqdZZENVeDF5mM-66" edge="1">
          <mxGeometry relative="1" as="geometry" />
        </mxCell>
        <mxCell id="Nef6qseqdZZENVeDF5mM-61" value="" style="ellipse;whiteSpace=wrap;html=1;aspect=fixed;fillColor=#fff2cc;strokeColor=#d6b656;" parent="1" vertex="1">
          <mxGeometry x="680" y="200" width="40" height="40" as="geometry" />
        </mxCell>
        <mxCell id="Nef6qseqdZZENVeDF5mM-67" style="edgeStyle=none;shape=connector;rounded=0;orthogonalLoop=1;jettySize=auto;html=1;exitX=1;exitY=0.5;exitDx=0;exitDy=0;entryX=0;entryY=0.5;entryDx=0;entryDy=0;strokeColor=default;align=center;verticalAlign=middle;fontFamily=Helvetica;fontSize=11;fontColor=default;labelBackgroundColor=default;endArrow=none;endFill=0;" parent="1" source="Nef6qseqdZZENVeDF5mM-62" target="Nef6qseqdZZENVeDF5mM-66" edge="1">
          <mxGeometry relative="1" as="geometry" />
        </mxCell>
        <mxCell id="Nef6qseqdZZENVeDF5mM-62" value="" style="ellipse;whiteSpace=wrap;html=1;aspect=fixed;fillColor=#fff2cc;strokeColor=#d6b656;" parent="1" vertex="1">
          <mxGeometry x="440" y="200" width="40" height="40" as="geometry" />
        </mxCell>
        <mxCell id="Nef6qseqdZZENVeDF5mM-74" style="edgeStyle=none;shape=connector;rounded=0;orthogonalLoop=1;jettySize=auto;html=1;exitX=1;exitY=0;exitDx=0;exitDy=0;entryX=0;entryY=1;entryDx=0;entryDy=0;strokeColor=default;align=center;verticalAlign=middle;fontFamily=Helvetica;fontSize=11;fontColor=default;labelBackgroundColor=default;endArrow=none;endFill=0;" parent="1" source="Nef6qseqdZZENVeDF5mM-63" target="Nef6qseqdZZENVeDF5mM-66" edge="1">
          <mxGeometry relative="1" as="geometry" />
        </mxCell>
        <mxCell id="Nef6qseqdZZENVeDF5mM-63" value="" style="ellipse;whiteSpace=wrap;html=1;aspect=fixed;fillColor=#fff2cc;strokeColor=#d6b656;" parent="1" vertex="1">
          <mxGeometry x="480" y="280" width="40" height="40" as="geometry" />
        </mxCell>
        <mxCell id="Nef6qseqdZZENVeDF5mM-72" style="edgeStyle=none;shape=connector;rounded=0;orthogonalLoop=1;jettySize=auto;html=1;exitX=0;exitY=0;exitDx=0;exitDy=0;entryX=1;entryY=1;entryDx=0;entryDy=0;strokeColor=default;align=center;verticalAlign=middle;fontFamily=Helvetica;fontSize=11;fontColor=default;labelBackgroundColor=default;endArrow=none;endFill=0;" parent="1" source="Nef6qseqdZZENVeDF5mM-64" target="Nef6qseqdZZENVeDF5mM-66" edge="1">
          <mxGeometry relative="1" as="geometry" />
        </mxCell>
        <mxCell id="Nef6qseqdZZENVeDF5mM-64" value="" style="ellipse;whiteSpace=wrap;html=1;aspect=fixed;fillColor=#fff2cc;strokeColor=#d6b656;" parent="1" vertex="1">
          <mxGeometry x="640" y="280" width="40" height="40" as="geometry" />
        </mxCell>
        <mxCell id="Nef6qseqdZZENVeDF5mM-69" style="edgeStyle=none;shape=connector;rounded=0;orthogonalLoop=1;jettySize=auto;html=1;exitX=0.5;exitY=1;exitDx=0;exitDy=0;entryX=0.5;entryY=0;entryDx=0;entryDy=0;strokeColor=default;align=center;verticalAlign=middle;fontFamily=Helvetica;fontSize=11;fontColor=default;labelBackgroundColor=default;endArrow=none;endFill=0;" parent="1" source="Nef6qseqdZZENVeDF5mM-65" target="Nef6qseqdZZENVeDF5mM-66" edge="1">
          <mxGeometry relative="1" as="geometry" />
        </mxCell>
        <mxCell id="Nef6qseqdZZENVeDF5mM-65" value="" style="ellipse;whiteSpace=wrap;html=1;aspect=fixed;fillColor=#fff2cc;strokeColor=#d6b656;" parent="1" vertex="1">
          <mxGeometry x="560" y="80" width="40" height="40" as="geometry" />
        </mxCell>
        <mxCell id="Nef6qseqdZZENVeDF5mM-66" value="" style="ellipse;whiteSpace=wrap;html=1;aspect=fixed;fillColor=#fff2cc;strokeColor=#d6b656;" parent="1" vertex="1">
          <mxGeometry x="560" y="200" width="40" height="40" as="geometry" />
        </mxCell>
        <mxCell id="Nef6qseqdZZENVeDF5mM-75" value="Small connection cost but extremely vulnerable and node distances are large" style="text;html=1;align=center;verticalAlign=middle;whiteSpace=wrap;rounded=0;fontFamily=Helvetica;fontSize=20;fontColor=default;labelBackgroundColor=default;" parent="1" vertex="1">
          <mxGeometry x="470" y="400" width="280" height="30" as="geometry" />
        </mxCell>
        <mxCell id="Nef6qseqdZZENVeDF5mM-76" value="Efficient and low-cost but vulnerable" style="text;html=1;align=center;verticalAlign=middle;whiteSpace=wrap;rounded=0;fontFamily=Helvetica;fontSize=20;fontColor=default;labelBackgroundColor=default;" parent="1" vertex="1">
          <mxGeometry x="430" y="40" width="330" height="30" as="geometry" />
        </mxCell>
        <mxCell id="19SygxmWKAcVOHkyaGbi-27" style="rounded=0;orthogonalLoop=1;jettySize=auto;html=1;exitX=1;exitY=1;exitDx=0;exitDy=0;entryX=0;entryY=0;entryDx=0;entryDy=0;endArrow=none;endFill=0;" edge="1" parent="1" source="19SygxmWKAcVOHkyaGbi-1" target="19SygxmWKAcVOHkyaGbi-5">
          <mxGeometry relative="1" as="geometry" />
        </mxCell>
        <mxCell id="19SygxmWKAcVOHkyaGbi-1" value="" style="ellipse;whiteSpace=wrap;html=1;aspect=fixed;fillColor=#fff2cc;strokeColor=#d6b656;" vertex="1" parent="1">
          <mxGeometry x="90" y="440" width="40" height="40" as="geometry" />
        </mxCell>
        <mxCell id="19SygxmWKAcVOHkyaGbi-28" style="edgeStyle=none;shape=connector;rounded=0;orthogonalLoop=1;jettySize=auto;html=1;exitX=1;exitY=1;exitDx=0;exitDy=0;strokeColor=default;align=center;verticalAlign=middle;fontFamily=Helvetica;fontSize=11;fontColor=default;labelBackgroundColor=default;endArrow=none;endFill=0;" edge="1" parent="1" source="19SygxmWKAcVOHkyaGbi-2" target="19SygxmWKAcVOHkyaGbi-8">
          <mxGeometry relative="1" as="geometry" />
        </mxCell>
        <mxCell id="19SygxmWKAcVOHkyaGbi-41" style="edgeStyle=none;shape=connector;rounded=0;orthogonalLoop=1;jettySize=auto;html=1;exitX=0;exitY=1;exitDx=0;exitDy=0;entryX=1;entryY=0;entryDx=0;entryDy=0;strokeColor=default;align=center;verticalAlign=middle;fontFamily=Helvetica;fontSize=11;fontColor=default;labelBackgroundColor=default;endArrow=none;endFill=0;" edge="1" parent="1" source="19SygxmWKAcVOHkyaGbi-2" target="19SygxmWKAcVOHkyaGbi-5">
          <mxGeometry relative="1" as="geometry" />
        </mxCell>
        <mxCell id="19SygxmWKAcVOHkyaGbi-2" value="" style="ellipse;whiteSpace=wrap;html=1;aspect=fixed;fillColor=#fff2cc;strokeColor=#d6b656;" vertex="1" parent="1">
          <mxGeometry x="170" y="440" width="40" height="40" as="geometry" />
        </mxCell>
        <mxCell id="19SygxmWKAcVOHkyaGbi-29" style="edgeStyle=none;shape=connector;rounded=0;orthogonalLoop=1;jettySize=auto;html=1;exitX=1;exitY=1;exitDx=0;exitDy=0;entryX=0;entryY=0;entryDx=0;entryDy=0;strokeColor=default;align=center;verticalAlign=middle;fontFamily=Helvetica;fontSize=11;fontColor=default;labelBackgroundColor=default;endArrow=none;endFill=0;" edge="1" parent="1" source="19SygxmWKAcVOHkyaGbi-3" target="19SygxmWKAcVOHkyaGbi-9">
          <mxGeometry relative="1" as="geometry" />
        </mxCell>
        <mxCell id="19SygxmWKAcVOHkyaGbi-37" style="edgeStyle=none;shape=connector;rounded=0;orthogonalLoop=1;jettySize=auto;html=1;exitX=0;exitY=1;exitDx=0;exitDy=0;entryX=1;entryY=0;entryDx=0;entryDy=0;strokeColor=default;align=center;verticalAlign=middle;fontFamily=Helvetica;fontSize=11;fontColor=default;labelBackgroundColor=default;endArrow=none;endFill=0;" edge="1" parent="1" source="19SygxmWKAcVOHkyaGbi-3" target="19SygxmWKAcVOHkyaGbi-8">
          <mxGeometry relative="1" as="geometry" />
        </mxCell>
        <mxCell id="19SygxmWKAcVOHkyaGbi-3" value="" style="ellipse;whiteSpace=wrap;html=1;aspect=fixed;fillColor=#fff2cc;strokeColor=#d6b656;" vertex="1" parent="1">
          <mxGeometry x="250" y="440" width="40" height="40" as="geometry" />
        </mxCell>
        <mxCell id="19SygxmWKAcVOHkyaGbi-4" value="" style="ellipse;whiteSpace=wrap;html=1;aspect=fixed;fillColor=#fff2cc;strokeColor=#d6b656;" vertex="1" parent="1">
          <mxGeometry x="330" y="440" width="40" height="40" as="geometry" />
        </mxCell>
        <mxCell id="19SygxmWKAcVOHkyaGbi-42" style="edgeStyle=none;shape=connector;rounded=0;orthogonalLoop=1;jettySize=auto;html=1;exitX=1;exitY=1;exitDx=0;exitDy=0;entryX=0;entryY=0;entryDx=0;entryDy=0;strokeColor=default;align=center;verticalAlign=middle;fontFamily=Helvetica;fontSize=11;fontColor=default;labelBackgroundColor=default;endArrow=none;endFill=0;" edge="1" parent="1" source="19SygxmWKAcVOHkyaGbi-5" target="19SygxmWKAcVOHkyaGbi-12">
          <mxGeometry relative="1" as="geometry" />
        </mxCell>
        <mxCell id="19SygxmWKAcVOHkyaGbi-57" style="edgeStyle=none;shape=connector;rounded=0;orthogonalLoop=1;jettySize=auto;html=1;exitX=0;exitY=1;exitDx=0;exitDy=0;entryX=1;entryY=0;entryDx=0;entryDy=0;strokeColor=default;align=center;verticalAlign=middle;fontFamily=Helvetica;fontSize=11;fontColor=default;labelBackgroundColor=default;endArrow=none;endFill=0;" edge="1" parent="1" source="19SygxmWKAcVOHkyaGbi-5" target="19SygxmWKAcVOHkyaGbi-11">
          <mxGeometry relative="1" as="geometry" />
        </mxCell>
        <mxCell id="19SygxmWKAcVOHkyaGbi-5" value="" style="ellipse;whiteSpace=wrap;html=1;aspect=fixed;fillColor=#fff2cc;strokeColor=#d6b656;" vertex="1" parent="1">
          <mxGeometry x="130" y="480" width="40" height="40" as="geometry" />
        </mxCell>
        <mxCell id="19SygxmWKAcVOHkyaGbi-38" style="edgeStyle=none;shape=connector;rounded=0;orthogonalLoop=1;jettySize=auto;html=1;exitX=1;exitY=1;exitDx=0;exitDy=0;entryX=0;entryY=0;entryDx=0;entryDy=0;strokeColor=default;align=center;verticalAlign=middle;fontFamily=Helvetica;fontSize=11;fontColor=default;labelBackgroundColor=default;endArrow=none;endFill=0;" edge="1" parent="1" source="19SygxmWKAcVOHkyaGbi-8" target="19SygxmWKAcVOHkyaGbi-13">
          <mxGeometry relative="1" as="geometry" />
        </mxCell>
        <mxCell id="19SygxmWKAcVOHkyaGbi-43" style="edgeStyle=none;shape=connector;rounded=0;orthogonalLoop=1;jettySize=auto;html=1;exitX=0;exitY=1;exitDx=0;exitDy=0;entryX=1;entryY=0;entryDx=0;entryDy=0;strokeColor=default;align=center;verticalAlign=middle;fontFamily=Helvetica;fontSize=11;fontColor=default;labelBackgroundColor=default;endArrow=none;endFill=0;" edge="1" parent="1" source="19SygxmWKAcVOHkyaGbi-8" target="19SygxmWKAcVOHkyaGbi-12">
          <mxGeometry relative="1" as="geometry" />
        </mxCell>
        <mxCell id="19SygxmWKAcVOHkyaGbi-8" value="" style="ellipse;whiteSpace=wrap;html=1;aspect=fixed;fillColor=#fff2cc;strokeColor=#d6b656;" vertex="1" parent="1">
          <mxGeometry x="210" y="480" width="40" height="40" as="geometry" />
        </mxCell>
        <mxCell id="19SygxmWKAcVOHkyaGbi-31" style="edgeStyle=none;shape=connector;rounded=0;orthogonalLoop=1;jettySize=auto;html=1;exitX=1;exitY=0;exitDx=0;exitDy=0;entryX=0;entryY=1;entryDx=0;entryDy=0;strokeColor=default;align=center;verticalAlign=middle;fontFamily=Helvetica;fontSize=11;fontColor=default;labelBackgroundColor=default;endArrow=none;endFill=0;" edge="1" parent="1" source="19SygxmWKAcVOHkyaGbi-9" target="19SygxmWKAcVOHkyaGbi-4">
          <mxGeometry relative="1" as="geometry" />
        </mxCell>
        <mxCell id="19SygxmWKAcVOHkyaGbi-39" style="edgeStyle=none;shape=connector;rounded=0;orthogonalLoop=1;jettySize=auto;html=1;exitX=0;exitY=1;exitDx=0;exitDy=0;entryX=1;entryY=0;entryDx=0;entryDy=0;strokeColor=default;align=center;verticalAlign=middle;fontFamily=Helvetica;fontSize=11;fontColor=default;labelBackgroundColor=default;endArrow=none;endFill=0;" edge="1" parent="1" source="19SygxmWKAcVOHkyaGbi-9" target="19SygxmWKAcVOHkyaGbi-13">
          <mxGeometry relative="1" as="geometry" />
        </mxCell>
        <mxCell id="19SygxmWKAcVOHkyaGbi-56" style="edgeStyle=none;shape=connector;rounded=0;orthogonalLoop=1;jettySize=auto;html=1;exitX=1;exitY=1;exitDx=0;exitDy=0;entryX=0;entryY=0;entryDx=0;entryDy=0;strokeColor=default;align=center;verticalAlign=middle;fontFamily=Helvetica;fontSize=11;fontColor=default;labelBackgroundColor=default;endArrow=none;endFill=0;" edge="1" parent="1" source="19SygxmWKAcVOHkyaGbi-9" target="19SygxmWKAcVOHkyaGbi-14">
          <mxGeometry relative="1" as="geometry" />
        </mxCell>
        <mxCell id="19SygxmWKAcVOHkyaGbi-9" value="" style="ellipse;whiteSpace=wrap;html=1;aspect=fixed;fillColor=#fff2cc;strokeColor=#d6b656;" vertex="1" parent="1">
          <mxGeometry x="290" y="480" width="40" height="40" as="geometry" />
        </mxCell>
        <mxCell id="19SygxmWKAcVOHkyaGbi-48" style="edgeStyle=none;shape=connector;rounded=0;orthogonalLoop=1;jettySize=auto;html=1;exitX=1;exitY=1;exitDx=0;exitDy=0;entryX=0;entryY=0;entryDx=0;entryDy=0;strokeColor=default;align=center;verticalAlign=middle;fontFamily=Helvetica;fontSize=11;fontColor=default;labelBackgroundColor=default;endArrow=none;endFill=0;" edge="1" parent="1" source="19SygxmWKAcVOHkyaGbi-11" target="19SygxmWKAcVOHkyaGbi-15">
          <mxGeometry relative="1" as="geometry" />
        </mxCell>
        <mxCell id="19SygxmWKAcVOHkyaGbi-11" value="" style="ellipse;whiteSpace=wrap;html=1;aspect=fixed;fillColor=#fff2cc;strokeColor=#d6b656;" vertex="1" parent="1">
          <mxGeometry x="90" y="520" width="40" height="40" as="geometry" />
        </mxCell>
        <mxCell id="19SygxmWKAcVOHkyaGbi-44" style="edgeStyle=none;shape=connector;rounded=0;orthogonalLoop=1;jettySize=auto;html=1;exitX=0;exitY=1;exitDx=0;exitDy=0;entryX=1;entryY=0;entryDx=0;entryDy=0;strokeColor=default;align=center;verticalAlign=middle;fontFamily=Helvetica;fontSize=11;fontColor=default;labelBackgroundColor=default;endArrow=none;endFill=0;" edge="1" parent="1" source="19SygxmWKAcVOHkyaGbi-12" target="19SygxmWKAcVOHkyaGbi-15">
          <mxGeometry relative="1" as="geometry" />
        </mxCell>
        <mxCell id="19SygxmWKAcVOHkyaGbi-45" style="edgeStyle=none;shape=connector;rounded=0;orthogonalLoop=1;jettySize=auto;html=1;exitX=1;exitY=1;exitDx=0;exitDy=0;strokeColor=default;align=center;verticalAlign=middle;fontFamily=Helvetica;fontSize=11;fontColor=default;labelBackgroundColor=default;endArrow=none;endFill=0;" edge="1" parent="1" source="19SygxmWKAcVOHkyaGbi-12" target="19SygxmWKAcVOHkyaGbi-16">
          <mxGeometry relative="1" as="geometry" />
        </mxCell>
        <mxCell id="19SygxmWKAcVOHkyaGbi-12" value="" style="ellipse;whiteSpace=wrap;html=1;aspect=fixed;fillColor=#fff2cc;strokeColor=#d6b656;" vertex="1" parent="1">
          <mxGeometry x="170" y="520" width="40" height="40" as="geometry" />
        </mxCell>
        <mxCell id="19SygxmWKAcVOHkyaGbi-35" style="edgeStyle=none;shape=connector;rounded=0;orthogonalLoop=1;jettySize=auto;html=1;exitX=1;exitY=1;exitDx=0;exitDy=0;entryX=0;entryY=0;entryDx=0;entryDy=0;strokeColor=default;align=center;verticalAlign=middle;fontFamily=Helvetica;fontSize=11;fontColor=default;labelBackgroundColor=default;endArrow=none;endFill=0;" edge="1" parent="1" source="19SygxmWKAcVOHkyaGbi-13" target="19SygxmWKAcVOHkyaGbi-17">
          <mxGeometry relative="1" as="geometry" />
        </mxCell>
        <mxCell id="19SygxmWKAcVOHkyaGbi-53" style="edgeStyle=none;shape=connector;rounded=0;orthogonalLoop=1;jettySize=auto;html=1;exitX=0;exitY=1;exitDx=0;exitDy=0;entryX=1;entryY=0;entryDx=0;entryDy=0;strokeColor=default;align=center;verticalAlign=middle;fontFamily=Helvetica;fontSize=11;fontColor=default;labelBackgroundColor=default;endArrow=none;endFill=0;" edge="1" parent="1" source="19SygxmWKAcVOHkyaGbi-13" target="19SygxmWKAcVOHkyaGbi-16">
          <mxGeometry relative="1" as="geometry" />
        </mxCell>
        <mxCell id="19SygxmWKAcVOHkyaGbi-13" value="" style="ellipse;whiteSpace=wrap;html=1;aspect=fixed;fillColor=#fff2cc;strokeColor=#d6b656;" vertex="1" parent="1">
          <mxGeometry x="250" y="520" width="40" height="40" as="geometry" />
        </mxCell>
        <mxCell id="19SygxmWKAcVOHkyaGbi-60" style="edgeStyle=none;shape=connector;rounded=0;orthogonalLoop=1;jettySize=auto;html=1;exitX=0;exitY=1;exitDx=0;exitDy=0;entryX=1;entryY=0;entryDx=0;entryDy=0;strokeColor=default;align=center;verticalAlign=middle;fontFamily=Helvetica;fontSize=11;fontColor=default;labelBackgroundColor=default;endArrow=none;endFill=0;" edge="1" parent="1" source="19SygxmWKAcVOHkyaGbi-14" target="19SygxmWKAcVOHkyaGbi-17">
          <mxGeometry relative="1" as="geometry" />
        </mxCell>
        <mxCell id="19SygxmWKAcVOHkyaGbi-14" value="" style="ellipse;whiteSpace=wrap;html=1;aspect=fixed;fillColor=#fff2cc;strokeColor=#d6b656;" vertex="1" parent="1">
          <mxGeometry x="330" y="520" width="40" height="40" as="geometry" />
        </mxCell>
        <mxCell id="19SygxmWKAcVOHkyaGbi-49" style="edgeStyle=none;shape=connector;rounded=0;orthogonalLoop=1;jettySize=auto;html=1;exitX=0;exitY=1;exitDx=0;exitDy=0;entryX=1;entryY=0;entryDx=0;entryDy=0;strokeColor=default;align=center;verticalAlign=middle;fontFamily=Helvetica;fontSize=11;fontColor=default;labelBackgroundColor=default;endArrow=none;endFill=0;" edge="1" parent="1" source="19SygxmWKAcVOHkyaGbi-15" target="19SygxmWKAcVOHkyaGbi-23">
          <mxGeometry relative="1" as="geometry" />
        </mxCell>
        <mxCell id="19SygxmWKAcVOHkyaGbi-15" value="" style="ellipse;whiteSpace=wrap;html=1;aspect=fixed;fillColor=#fff2cc;strokeColor=#d6b656;" vertex="1" parent="1">
          <mxGeometry x="130" y="560" width="40" height="40" as="geometry" />
        </mxCell>
        <mxCell id="19SygxmWKAcVOHkyaGbi-51" style="edgeStyle=none;shape=connector;rounded=0;orthogonalLoop=1;jettySize=auto;html=1;exitX=0;exitY=1;exitDx=0;exitDy=0;entryX=1;entryY=0;entryDx=0;entryDy=0;strokeColor=default;align=center;verticalAlign=middle;fontFamily=Helvetica;fontSize=11;fontColor=default;labelBackgroundColor=default;endArrow=none;endFill=0;" edge="1" parent="1" source="19SygxmWKAcVOHkyaGbi-16" target="19SygxmWKAcVOHkyaGbi-24">
          <mxGeometry relative="1" as="geometry" />
        </mxCell>
        <mxCell id="19SygxmWKAcVOHkyaGbi-52" style="edgeStyle=none;shape=connector;rounded=0;orthogonalLoop=1;jettySize=auto;html=1;exitX=1;exitY=1;exitDx=0;exitDy=0;entryX=0;entryY=0;entryDx=0;entryDy=0;strokeColor=default;align=center;verticalAlign=middle;fontFamily=Helvetica;fontSize=11;fontColor=default;labelBackgroundColor=default;endArrow=none;endFill=0;" edge="1" parent="1" source="19SygxmWKAcVOHkyaGbi-16" target="19SygxmWKAcVOHkyaGbi-25">
          <mxGeometry relative="1" as="geometry" />
        </mxCell>
        <mxCell id="19SygxmWKAcVOHkyaGbi-16" value="" style="ellipse;whiteSpace=wrap;html=1;aspect=fixed;fillColor=#fff2cc;strokeColor=#d6b656;" vertex="1" parent="1">
          <mxGeometry x="210" y="560" width="40" height="40" as="geometry" />
        </mxCell>
        <mxCell id="19SygxmWKAcVOHkyaGbi-54" style="edgeStyle=none;shape=connector;rounded=0;orthogonalLoop=1;jettySize=auto;html=1;exitX=0;exitY=1;exitDx=0;exitDy=0;entryX=1;entryY=0;entryDx=0;entryDy=0;strokeColor=default;align=center;verticalAlign=middle;fontFamily=Helvetica;fontSize=11;fontColor=default;labelBackgroundColor=default;endArrow=none;endFill=0;" edge="1" parent="1" source="19SygxmWKAcVOHkyaGbi-17" target="19SygxmWKAcVOHkyaGbi-25">
          <mxGeometry relative="1" as="geometry" />
        </mxCell>
        <mxCell id="19SygxmWKAcVOHkyaGbi-55" style="edgeStyle=none;shape=connector;rounded=0;orthogonalLoop=1;jettySize=auto;html=1;exitX=1;exitY=1;exitDx=0;exitDy=0;entryX=0;entryY=0;entryDx=0;entryDy=0;strokeColor=default;align=center;verticalAlign=middle;fontFamily=Helvetica;fontSize=11;fontColor=default;labelBackgroundColor=default;endArrow=none;endFill=0;" edge="1" parent="1" source="19SygxmWKAcVOHkyaGbi-17" target="19SygxmWKAcVOHkyaGbi-26">
          <mxGeometry relative="1" as="geometry" />
        </mxCell>
        <mxCell id="19SygxmWKAcVOHkyaGbi-17" value="" style="ellipse;whiteSpace=wrap;html=1;aspect=fixed;fillColor=#fff2cc;strokeColor=#d6b656;" vertex="1" parent="1">
          <mxGeometry x="290" y="560" width="40" height="40" as="geometry" />
        </mxCell>
        <mxCell id="19SygxmWKAcVOHkyaGbi-23" value="" style="ellipse;whiteSpace=wrap;html=1;aspect=fixed;fillColor=#fff2cc;strokeColor=#d6b656;" vertex="1" parent="1">
          <mxGeometry x="90" y="600" width="40" height="40" as="geometry" />
        </mxCell>
        <mxCell id="19SygxmWKAcVOHkyaGbi-24" value="" style="ellipse;whiteSpace=wrap;html=1;aspect=fixed;fillColor=#fff2cc;strokeColor=#d6b656;" vertex="1" parent="1">
          <mxGeometry x="170" y="600" width="40" height="40" as="geometry" />
        </mxCell>
        <mxCell id="19SygxmWKAcVOHkyaGbi-25" value="" style="ellipse;whiteSpace=wrap;html=1;aspect=fixed;fillColor=#fff2cc;strokeColor=#d6b656;" vertex="1" parent="1">
          <mxGeometry x="250" y="600" width="40" height="40" as="geometry" />
        </mxCell>
        <mxCell id="19SygxmWKAcVOHkyaGbi-26" value="" style="ellipse;whiteSpace=wrap;html=1;aspect=fixed;fillColor=#fff2cc;strokeColor=#d6b656;" vertex="1" parent="1">
          <mxGeometry x="330" y="600" width="40" height="40" as="geometry" />
        </mxCell>
        <mxCell id="19SygxmWKAcVOHkyaGbi-50" style="edgeStyle=none;shape=connector;rounded=0;orthogonalLoop=1;jettySize=auto;html=1;exitX=1;exitY=1;exitDx=0;exitDy=0;entryX=0.08;entryY=0.139;entryDx=0;entryDy=0;entryPerimeter=0;strokeColor=default;align=center;verticalAlign=middle;fontFamily=Helvetica;fontSize=11;fontColor=default;labelBackgroundColor=default;endArrow=none;endFill=0;" edge="1" parent="1" source="19SygxmWKAcVOHkyaGbi-15" target="19SygxmWKAcVOHkyaGbi-24">
          <mxGeometry relative="1" as="geometry" />
        </mxCell>
        <mxCell id="19SygxmWKAcVOHkyaGbi-58" value="Efficient and robust but costly" style="text;html=1;align=center;verticalAlign=middle;whiteSpace=wrap;rounded=0;fontFamily=Helvetica;fontSize=20;fontColor=default;labelBackgroundColor=default;" vertex="1" parent="1">
          <mxGeometry x="80" y="40" width="280" height="30" as="geometry" />
        </mxCell>
        <mxCell id="19SygxmWKAcVOHkyaGbi-80" style="edgeStyle=none;shape=connector;rounded=0;orthogonalLoop=1;jettySize=auto;html=1;exitX=1;exitY=0;exitDx=0;exitDy=0;entryX=0;entryY=1;entryDx=0;entryDy=0;strokeColor=default;align=center;verticalAlign=middle;fontFamily=Helvetica;fontSize=11;fontColor=default;labelBackgroundColor=default;endArrow=none;endFill=0;" edge="1" parent="1" source="19SygxmWKAcVOHkyaGbi-61" target="19SygxmWKAcVOHkyaGbi-62">
          <mxGeometry relative="1" as="geometry" />
        </mxCell>
        <mxCell id="19SygxmWKAcVOHkyaGbi-81" style="edgeStyle=none;shape=connector;rounded=0;orthogonalLoop=1;jettySize=auto;html=1;exitX=0;exitY=0;exitDx=0;exitDy=0;entryX=1;entryY=1;entryDx=0;entryDy=0;strokeColor=default;align=center;verticalAlign=middle;fontFamily=Helvetica;fontSize=11;fontColor=default;labelBackgroundColor=default;endArrow=none;endFill=0;" edge="1" parent="1" source="19SygxmWKAcVOHkyaGbi-61" target="19SygxmWKAcVOHkyaGbi-64">
          <mxGeometry relative="1" as="geometry" />
        </mxCell>
        <mxCell id="19SygxmWKAcVOHkyaGbi-61" value="" style="ellipse;whiteSpace=wrap;html=1;aspect=fixed;fillColor=#fff2cc;strokeColor=#d6b656;" vertex="1" parent="1">
          <mxGeometry x="590" y="640" width="40" height="40" as="geometry" />
        </mxCell>
        <mxCell id="19SygxmWKAcVOHkyaGbi-92" style="edgeStyle=none;shape=connector;rounded=0;orthogonalLoop=1;jettySize=auto;html=1;exitX=1;exitY=1;exitDx=0;exitDy=0;entryX=0;entryY=0;entryDx=0;entryDy=0;strokeColor=default;align=center;verticalAlign=middle;fontFamily=Helvetica;fontSize=11;fontColor=default;labelBackgroundColor=default;endArrow=none;endFill=0;" edge="1" parent="1" source="19SygxmWKAcVOHkyaGbi-62" target="19SygxmWKAcVOHkyaGbi-67">
          <mxGeometry relative="1" as="geometry" />
        </mxCell>
        <mxCell id="19SygxmWKAcVOHkyaGbi-93" style="edgeStyle=none;shape=connector;rounded=0;orthogonalLoop=1;jettySize=auto;html=1;exitX=1;exitY=0;exitDx=0;exitDy=0;entryX=0;entryY=1;entryDx=0;entryDy=0;strokeColor=default;align=center;verticalAlign=middle;fontFamily=Helvetica;fontSize=11;fontColor=default;labelBackgroundColor=default;endArrow=none;endFill=0;" edge="1" parent="1" source="19SygxmWKAcVOHkyaGbi-62" target="19SygxmWKAcVOHkyaGbi-65">
          <mxGeometry relative="1" as="geometry" />
        </mxCell>
        <mxCell id="19SygxmWKAcVOHkyaGbi-62" value="" style="ellipse;whiteSpace=wrap;html=1;aspect=fixed;fillColor=#fff2cc;strokeColor=#d6b656;" vertex="1" parent="1">
          <mxGeometry x="630" y="600" width="40" height="40" as="geometry" />
        </mxCell>
        <mxCell id="19SygxmWKAcVOHkyaGbi-82" style="edgeStyle=none;shape=connector;rounded=0;orthogonalLoop=1;jettySize=auto;html=1;exitX=0;exitY=0;exitDx=0;exitDy=0;entryX=1;entryY=1;entryDx=0;entryDy=0;strokeColor=default;align=center;verticalAlign=middle;fontFamily=Helvetica;fontSize=11;fontColor=default;labelBackgroundColor=default;endArrow=none;endFill=0;" edge="1" parent="1" source="19SygxmWKAcVOHkyaGbi-64" target="19SygxmWKAcVOHkyaGbi-66">
          <mxGeometry relative="1" as="geometry" />
        </mxCell>
        <mxCell id="19SygxmWKAcVOHkyaGbi-84" style="edgeStyle=none;shape=connector;rounded=0;orthogonalLoop=1;jettySize=auto;html=1;exitX=0;exitY=1;exitDx=0;exitDy=0;entryX=1;entryY=0;entryDx=0;entryDy=0;strokeColor=default;align=center;verticalAlign=middle;fontFamily=Helvetica;fontSize=11;fontColor=default;labelBackgroundColor=default;endArrow=none;endFill=0;" edge="1" parent="1" source="19SygxmWKAcVOHkyaGbi-64" target="19SygxmWKAcVOHkyaGbi-68">
          <mxGeometry relative="1" as="geometry" />
        </mxCell>
        <mxCell id="19SygxmWKAcVOHkyaGbi-64" value="" style="ellipse;whiteSpace=wrap;html=1;aspect=fixed;fillColor=#fff2cc;strokeColor=#d6b656;" vertex="1" parent="1">
          <mxGeometry x="550" y="600" width="40" height="40" as="geometry" />
        </mxCell>
        <mxCell id="19SygxmWKAcVOHkyaGbi-96" style="edgeStyle=none;shape=connector;rounded=0;orthogonalLoop=1;jettySize=auto;html=1;exitX=1;exitY=0.5;exitDx=0;exitDy=0;entryX=0;entryY=1;entryDx=0;entryDy=0;strokeColor=default;align=center;verticalAlign=middle;fontFamily=Helvetica;fontSize=11;fontColor=default;labelBackgroundColor=default;endArrow=none;endFill=0;" edge="1" parent="1" source="19SygxmWKAcVOHkyaGbi-65" target="19SygxmWKAcVOHkyaGbi-70">
          <mxGeometry relative="1" as="geometry" />
        </mxCell>
        <mxCell id="19SygxmWKAcVOHkyaGbi-97" style="edgeStyle=none;shape=connector;rounded=0;orthogonalLoop=1;jettySize=auto;html=1;exitX=0.5;exitY=0;exitDx=0;exitDy=0;entryX=0;entryY=1;entryDx=0;entryDy=0;strokeColor=default;align=center;verticalAlign=middle;fontFamily=Helvetica;fontSize=11;fontColor=default;labelBackgroundColor=default;endArrow=none;endFill=0;" edge="1" parent="1" source="19SygxmWKAcVOHkyaGbi-65" target="19SygxmWKAcVOHkyaGbi-69">
          <mxGeometry relative="1" as="geometry" />
        </mxCell>
        <mxCell id="19SygxmWKAcVOHkyaGbi-65" value="" style="ellipse;whiteSpace=wrap;html=1;aspect=fixed;fillColor=#fff2cc;strokeColor=#d6b656;" vertex="1" parent="1">
          <mxGeometry x="670" y="560" width="40" height="40" as="geometry" />
        </mxCell>
        <mxCell id="19SygxmWKAcVOHkyaGbi-90" style="edgeStyle=none;shape=connector;rounded=0;orthogonalLoop=1;jettySize=auto;html=1;exitX=0;exitY=0.5;exitDx=0;exitDy=0;entryX=1;entryY=1;entryDx=0;entryDy=0;strokeColor=default;align=center;verticalAlign=middle;fontFamily=Helvetica;fontSize=11;fontColor=default;labelBackgroundColor=default;endArrow=none;endFill=0;" edge="1" parent="1" source="19SygxmWKAcVOHkyaGbi-66" target="19SygxmWKAcVOHkyaGbi-73">
          <mxGeometry relative="1" as="geometry" />
        </mxCell>
        <mxCell id="19SygxmWKAcVOHkyaGbi-91" style="edgeStyle=none;shape=connector;rounded=0;orthogonalLoop=1;jettySize=auto;html=1;exitX=0.5;exitY=0;exitDx=0;exitDy=0;entryX=1;entryY=1;entryDx=0;entryDy=0;strokeColor=default;align=center;verticalAlign=middle;fontFamily=Helvetica;fontSize=11;fontColor=default;labelBackgroundColor=default;endArrow=none;endFill=0;" edge="1" parent="1" source="19SygxmWKAcVOHkyaGbi-66" target="19SygxmWKAcVOHkyaGbi-74">
          <mxGeometry relative="1" as="geometry" />
        </mxCell>
        <mxCell id="19SygxmWKAcVOHkyaGbi-66" value="" style="ellipse;whiteSpace=wrap;html=1;aspect=fixed;fillColor=#fff2cc;strokeColor=#d6b656;" vertex="1" parent="1">
          <mxGeometry x="510" y="560" width="40" height="40" as="geometry" />
        </mxCell>
        <mxCell id="19SygxmWKAcVOHkyaGbi-94" style="edgeStyle=none;shape=connector;rounded=0;orthogonalLoop=1;jettySize=auto;html=1;exitX=0.5;exitY=1;exitDx=0;exitDy=0;entryX=0;entryY=0;entryDx=0;entryDy=0;strokeColor=default;align=center;verticalAlign=middle;fontFamily=Helvetica;fontSize=11;fontColor=default;labelBackgroundColor=default;endArrow=none;endFill=0;" edge="1" parent="1" source="19SygxmWKAcVOHkyaGbi-67" target="19SygxmWKAcVOHkyaGbi-75">
          <mxGeometry relative="1" as="geometry" />
        </mxCell>
        <mxCell id="19SygxmWKAcVOHkyaGbi-95" style="edgeStyle=none;shape=connector;rounded=0;orthogonalLoop=1;jettySize=auto;html=1;exitX=1;exitY=0.5;exitDx=0;exitDy=0;entryX=0;entryY=0;entryDx=0;entryDy=0;strokeColor=default;align=center;verticalAlign=middle;fontFamily=Helvetica;fontSize=11;fontColor=default;labelBackgroundColor=default;endArrow=none;endFill=0;" edge="1" parent="1" source="19SygxmWKAcVOHkyaGbi-67" target="19SygxmWKAcVOHkyaGbi-76">
          <mxGeometry relative="1" as="geometry" />
        </mxCell>
        <mxCell id="19SygxmWKAcVOHkyaGbi-67" value="" style="ellipse;whiteSpace=wrap;html=1;aspect=fixed;fillColor=#fff2cc;strokeColor=#d6b656;" vertex="1" parent="1">
          <mxGeometry x="670" y="640" width="40" height="40" as="geometry" />
        </mxCell>
        <mxCell id="19SygxmWKAcVOHkyaGbi-88" style="edgeStyle=none;shape=connector;rounded=0;orthogonalLoop=1;jettySize=auto;html=1;exitX=0;exitY=1;exitDx=0;exitDy=0;entryX=0.5;entryY=0;entryDx=0;entryDy=0;strokeColor=default;align=center;verticalAlign=middle;fontFamily=Helvetica;fontSize=11;fontColor=default;labelBackgroundColor=default;endArrow=none;endFill=0;" edge="1" parent="1" source="19SygxmWKAcVOHkyaGbi-68" target="19SygxmWKAcVOHkyaGbi-72">
          <mxGeometry relative="1" as="geometry" />
        </mxCell>
        <mxCell id="19SygxmWKAcVOHkyaGbi-89" style="edgeStyle=none;shape=connector;rounded=0;orthogonalLoop=1;jettySize=auto;html=1;exitX=0;exitY=0;exitDx=0;exitDy=0;entryX=1;entryY=0.5;entryDx=0;entryDy=0;strokeColor=default;align=center;verticalAlign=middle;fontFamily=Helvetica;fontSize=11;fontColor=default;labelBackgroundColor=default;endArrow=none;endFill=0;" edge="1" parent="1" source="19SygxmWKAcVOHkyaGbi-68" target="19SygxmWKAcVOHkyaGbi-71">
          <mxGeometry relative="1" as="geometry" />
        </mxCell>
        <mxCell id="19SygxmWKAcVOHkyaGbi-68" value="" style="ellipse;whiteSpace=wrap;html=1;aspect=fixed;fillColor=#fff2cc;strokeColor=#d6b656;" vertex="1" parent="1">
          <mxGeometry x="510" y="640" width="40" height="40" as="geometry" />
        </mxCell>
        <mxCell id="19SygxmWKAcVOHkyaGbi-112" style="edgeStyle=none;shape=connector;rounded=0;orthogonalLoop=1;jettySize=auto;html=1;exitX=0.5;exitY=0;exitDx=0;exitDy=0;entryX=0.5;entryY=1;entryDx=0;entryDy=0;strokeColor=default;align=center;verticalAlign=middle;fontFamily=Helvetica;fontSize=11;fontColor=default;labelBackgroundColor=default;endArrow=none;endFill=0;" edge="1" parent="1" source="19SygxmWKAcVOHkyaGbi-69" target="19SygxmWKAcVOHkyaGbi-98">
          <mxGeometry relative="1" as="geometry" />
        </mxCell>
        <mxCell id="19SygxmWKAcVOHkyaGbi-69" value="" style="ellipse;whiteSpace=wrap;html=1;aspect=fixed;fillColor=#fff2cc;strokeColor=#d6b656;" vertex="1" parent="1">
          <mxGeometry x="690" y="500" width="40" height="40" as="geometry" />
        </mxCell>
        <mxCell id="19SygxmWKAcVOHkyaGbi-113" style="edgeStyle=none;shape=connector;rounded=0;orthogonalLoop=1;jettySize=auto;html=1;exitX=1;exitY=0;exitDx=0;exitDy=0;entryX=0;entryY=1;entryDx=0;entryDy=0;strokeColor=default;align=center;verticalAlign=middle;fontFamily=Helvetica;fontSize=11;fontColor=default;labelBackgroundColor=default;endArrow=none;endFill=0;" edge="1" parent="1" source="19SygxmWKAcVOHkyaGbi-70" target="19SygxmWKAcVOHkyaGbi-100">
          <mxGeometry relative="1" as="geometry" />
        </mxCell>
        <mxCell id="19SygxmWKAcVOHkyaGbi-114" style="edgeStyle=none;shape=connector;rounded=0;orthogonalLoop=1;jettySize=auto;html=1;exitX=1;exitY=1;exitDx=0;exitDy=0;entryX=0;entryY=0;entryDx=0;entryDy=0;strokeColor=default;align=center;verticalAlign=middle;fontFamily=Helvetica;fontSize=11;fontColor=default;labelBackgroundColor=default;endArrow=none;endFill=0;" edge="1" parent="1" source="19SygxmWKAcVOHkyaGbi-70" target="19SygxmWKAcVOHkyaGbi-101">
          <mxGeometry relative="1" as="geometry" />
        </mxCell>
        <mxCell id="19SygxmWKAcVOHkyaGbi-70" value="" style="ellipse;whiteSpace=wrap;html=1;aspect=fixed;fillColor=#fff2cc;strokeColor=#d6b656;" vertex="1" parent="1">
          <mxGeometry x="730" y="540" width="40" height="40" as="geometry" />
        </mxCell>
        <mxCell id="19SygxmWKAcVOHkyaGbi-71" value="" style="ellipse;whiteSpace=wrap;html=1;aspect=fixed;fillColor=#fff2cc;strokeColor=#d6b656;" vertex="1" parent="1">
          <mxGeometry x="450" y="620" width="40" height="40" as="geometry" />
        </mxCell>
        <mxCell id="19SygxmWKAcVOHkyaGbi-72" value="" style="ellipse;whiteSpace=wrap;html=1;aspect=fixed;fillColor=#fff2cc;strokeColor=#d6b656;" vertex="1" parent="1">
          <mxGeometry x="490" y="700" width="40" height="40" as="geometry" />
        </mxCell>
        <mxCell id="19SygxmWKAcVOHkyaGbi-110" style="edgeStyle=none;shape=connector;rounded=0;orthogonalLoop=1;jettySize=auto;html=1;exitX=0;exitY=1;exitDx=0;exitDy=0;entryX=1;entryY=0;entryDx=0;entryDy=0;strokeColor=default;align=center;verticalAlign=middle;fontFamily=Helvetica;fontSize=11;fontColor=default;labelBackgroundColor=default;endArrow=none;endFill=0;" edge="1" parent="1" source="19SygxmWKAcVOHkyaGbi-73" target="19SygxmWKAcVOHkyaGbi-105">
          <mxGeometry relative="1" as="geometry" />
        </mxCell>
        <mxCell id="19SygxmWKAcVOHkyaGbi-73" value="" style="ellipse;whiteSpace=wrap;html=1;aspect=fixed;fillColor=#fff2cc;strokeColor=#d6b656;" vertex="1" parent="1">
          <mxGeometry x="450" y="540" width="40" height="40" as="geometry" />
        </mxCell>
        <mxCell id="19SygxmWKAcVOHkyaGbi-108" style="edgeStyle=none;shape=connector;rounded=0;orthogonalLoop=1;jettySize=auto;html=1;exitX=0.5;exitY=0;exitDx=0;exitDy=0;entryX=0.5;entryY=1;entryDx=0;entryDy=0;strokeColor=default;align=center;verticalAlign=middle;fontFamily=Helvetica;fontSize=11;fontColor=default;labelBackgroundColor=default;endArrow=none;endFill=0;" edge="1" parent="1" source="19SygxmWKAcVOHkyaGbi-74" target="19SygxmWKAcVOHkyaGbi-104">
          <mxGeometry relative="1" as="geometry" />
        </mxCell>
        <mxCell id="19SygxmWKAcVOHkyaGbi-109" style="edgeStyle=none;shape=connector;rounded=0;orthogonalLoop=1;jettySize=auto;html=1;exitX=1;exitY=0.5;exitDx=0;exitDy=0;entryX=0;entryY=0.5;entryDx=0;entryDy=0;strokeColor=default;align=center;verticalAlign=middle;fontFamily=Helvetica;fontSize=11;fontColor=default;labelBackgroundColor=default;endArrow=none;endFill=0;" edge="1" parent="1" source="19SygxmWKAcVOHkyaGbi-74" target="19SygxmWKAcVOHkyaGbi-103">
          <mxGeometry relative="1" as="geometry" />
        </mxCell>
        <mxCell id="19SygxmWKAcVOHkyaGbi-74" value="" style="ellipse;whiteSpace=wrap;html=1;aspect=fixed;fillColor=#fff2cc;strokeColor=#d6b656;" vertex="1" parent="1">
          <mxGeometry x="490" y="500" width="40" height="40" as="geometry" />
        </mxCell>
        <mxCell id="19SygxmWKAcVOHkyaGbi-75" value="" style="ellipse;whiteSpace=wrap;html=1;aspect=fixed;fillColor=#fff2cc;strokeColor=#d6b656;" vertex="1" parent="1">
          <mxGeometry x="690" y="700" width="40" height="40" as="geometry" />
        </mxCell>
        <mxCell id="19SygxmWKAcVOHkyaGbi-76" value="" style="ellipse;whiteSpace=wrap;html=1;aspect=fixed;fillColor=#fff2cc;strokeColor=#d6b656;" vertex="1" parent="1">
          <mxGeometry x="730" y="660" width="40" height="40" as="geometry" />
        </mxCell>
        <mxCell id="19SygxmWKAcVOHkyaGbi-98" value="" style="ellipse;whiteSpace=wrap;html=1;aspect=fixed;fillColor=#fff2cc;strokeColor=#d6b656;" vertex="1" parent="1">
          <mxGeometry x="690" y="450" width="40" height="40" as="geometry" />
        </mxCell>
        <mxCell id="19SygxmWKAcVOHkyaGbi-99" value="" style="ellipse;whiteSpace=wrap;html=1;aspect=fixed;fillColor=#fff2cc;strokeColor=#d6b656;" vertex="1" parent="1">
          <mxGeometry x="640" y="500" width="40" height="40" as="geometry" />
        </mxCell>
        <mxCell id="19SygxmWKAcVOHkyaGbi-100" value="" style="ellipse;whiteSpace=wrap;html=1;aspect=fixed;fillColor=#fff2cc;strokeColor=#d6b656;" vertex="1" parent="1">
          <mxGeometry x="770" y="500" width="40" height="40" as="geometry" />
        </mxCell>
        <mxCell id="19SygxmWKAcVOHkyaGbi-101" value="" style="ellipse;whiteSpace=wrap;html=1;aspect=fixed;fillColor=#fff2cc;strokeColor=#d6b656;" vertex="1" parent="1">
          <mxGeometry x="770" y="580" width="40" height="40" as="geometry" />
        </mxCell>
        <mxCell id="19SygxmWKAcVOHkyaGbi-102" value="" style="ellipse;whiteSpace=wrap;html=1;aspect=fixed;fillColor=#fff2cc;strokeColor=#d6b656;" vertex="1" parent="1">
          <mxGeometry x="415" y="500" width="40" height="40" as="geometry" />
        </mxCell>
        <mxCell id="19SygxmWKAcVOHkyaGbi-103" value="" style="ellipse;whiteSpace=wrap;html=1;aspect=fixed;fillColor=#fff2cc;strokeColor=#d6b656;" vertex="1" parent="1">
          <mxGeometry x="540" y="500" width="40" height="40" as="geometry" />
        </mxCell>
        <mxCell id="19SygxmWKAcVOHkyaGbi-104" value="" style="ellipse;whiteSpace=wrap;html=1;aspect=fixed;fillColor=#fff2cc;strokeColor=#d6b656;" vertex="1" parent="1">
          <mxGeometry x="490" y="450" width="40" height="40" as="geometry" />
        </mxCell>
        <mxCell id="19SygxmWKAcVOHkyaGbi-105" value="" style="ellipse;whiteSpace=wrap;html=1;aspect=fixed;fillColor=#fff2cc;strokeColor=#d6b656;" vertex="1" parent="1">
          <mxGeometry x="410" y="580" width="40" height="40" as="geometry" />
        </mxCell>
        <mxCell id="19SygxmWKAcVOHkyaGbi-106" style="edgeStyle=none;shape=connector;rounded=0;orthogonalLoop=1;jettySize=auto;html=1;exitX=0;exitY=0;exitDx=0;exitDy=0;entryX=0.817;entryY=0.882;entryDx=0;entryDy=0;entryPerimeter=0;strokeColor=default;align=center;verticalAlign=middle;fontFamily=Helvetica;fontSize=11;fontColor=default;labelBackgroundColor=default;endArrow=none;endFill=0;" edge="1" parent="1" source="19SygxmWKAcVOHkyaGbi-73" target="19SygxmWKAcVOHkyaGbi-102">
          <mxGeometry relative="1" as="geometry" />
        </mxCell>
        <mxCell id="19SygxmWKAcVOHkyaGbi-111" style="edgeStyle=none;shape=connector;rounded=0;orthogonalLoop=1;jettySize=auto;html=1;exitX=1;exitY=0.5;exitDx=0;exitDy=0;entryX=0.05;entryY=0.511;entryDx=0;entryDy=0;entryPerimeter=0;strokeColor=default;align=center;verticalAlign=middle;fontFamily=Helvetica;fontSize=11;fontColor=default;labelBackgroundColor=default;endArrow=none;endFill=0;" edge="1" parent="1" source="19SygxmWKAcVOHkyaGbi-99" target="19SygxmWKAcVOHkyaGbi-69">
          <mxGeometry relative="1" as="geometry" />
        </mxCell>
        <mxCell id="19SygxmWKAcVOHkyaGbi-115" value="Robust and less cost, but distances between nodes are huge" style="text;html=1;align=center;verticalAlign=middle;whiteSpace=wrap;rounded=0;fontFamily=Helvetica;fontSize=20;fontColor=default;labelBackgroundColor=default;" vertex="1" parent="1">
          <mxGeometry x="60" y="400" width="320" height="30" as="geometry" />
        </mxCell>
        <mxCell id="19SygxmWKAcVOHkyaGbi-126" style="edgeStyle=none;shape=connector;rounded=0;orthogonalLoop=1;jettySize=auto;html=1;exitX=1;exitY=0.5;exitDx=0;exitDy=0;entryX=0;entryY=0.5;entryDx=0;entryDy=0;strokeColor=default;align=center;verticalAlign=middle;fontFamily=Helvetica;fontSize=11;fontColor=default;labelBackgroundColor=default;endArrow=none;endFill=0;" edge="1" parent="1" source="19SygxmWKAcVOHkyaGbi-118" target="19SygxmWKAcVOHkyaGbi-120">
          <mxGeometry relative="1" as="geometry" />
        </mxCell>
        <mxCell id="19SygxmWKAcVOHkyaGbi-133" style="edgeStyle=none;shape=connector;rounded=0;orthogonalLoop=1;jettySize=auto;html=1;exitX=0.5;exitY=1;exitDx=0;exitDy=0;entryX=0;entryY=0;entryDx=0;entryDy=0;strokeColor=default;align=center;verticalAlign=middle;fontFamily=Helvetica;fontSize=11;fontColor=default;labelBackgroundColor=default;endArrow=none;endFill=0;" edge="1" parent="1" source="19SygxmWKAcVOHkyaGbi-118" target="19SygxmWKAcVOHkyaGbi-124">
          <mxGeometry relative="1" as="geometry" />
        </mxCell>
        <mxCell id="19SygxmWKAcVOHkyaGbi-118" value="" style="ellipse;whiteSpace=wrap;html=1;aspect=fixed;fillColor=#fff2cc;strokeColor=#d6b656;" vertex="1" parent="1">
          <mxGeometry x="110" y="830" width="20" height="20" as="geometry" />
        </mxCell>
        <mxCell id="19SygxmWKAcVOHkyaGbi-127" style="edgeStyle=none;shape=connector;rounded=0;orthogonalLoop=1;jettySize=auto;html=1;exitX=1;exitY=0.5;exitDx=0;exitDy=0;entryX=0;entryY=0.5;entryDx=0;entryDy=0;strokeColor=default;align=center;verticalAlign=middle;fontFamily=Helvetica;fontSize=11;fontColor=default;labelBackgroundColor=default;endArrow=none;endFill=0;" edge="1" parent="1" source="19SygxmWKAcVOHkyaGbi-120" target="19SygxmWKAcVOHkyaGbi-123">
          <mxGeometry relative="1" as="geometry" />
        </mxCell>
        <mxCell id="19SygxmWKAcVOHkyaGbi-132" style="edgeStyle=none;shape=connector;rounded=0;orthogonalLoop=1;jettySize=auto;html=1;exitX=1;exitY=0;exitDx=0;exitDy=0;entryX=0;entryY=1;entryDx=0;entryDy=0;strokeColor=default;align=center;verticalAlign=middle;fontFamily=Helvetica;fontSize=11;fontColor=default;labelBackgroundColor=default;endArrow=none;endFill=0;" edge="1" parent="1" source="19SygxmWKAcVOHkyaGbi-120" target="19SygxmWKAcVOHkyaGbi-122">
          <mxGeometry relative="1" as="geometry" />
        </mxCell>
        <mxCell id="19SygxmWKAcVOHkyaGbi-136" style="edgeStyle=none;shape=connector;rounded=0;orthogonalLoop=1;jettySize=auto;html=1;exitX=1;exitY=1;exitDx=0;exitDy=0;entryX=0.152;entryY=0.241;entryDx=0;entryDy=0;strokeColor=default;align=center;verticalAlign=middle;fontFamily=Helvetica;fontSize=11;fontColor=default;labelBackgroundColor=default;endArrow=none;endFill=0;entryPerimeter=0;" edge="1" parent="1" source="19SygxmWKAcVOHkyaGbi-120" target="19SygxmWKAcVOHkyaGbi-125">
          <mxGeometry relative="1" as="geometry" />
        </mxCell>
        <mxCell id="19SygxmWKAcVOHkyaGbi-120" value="" style="ellipse;whiteSpace=wrap;html=1;aspect=fixed;fillColor=#fff2cc;strokeColor=#d6b656;" vertex="1" parent="1">
          <mxGeometry x="150" y="830" width="20" height="20" as="geometry" />
        </mxCell>
        <mxCell id="19SygxmWKAcVOHkyaGbi-128" style="edgeStyle=none;shape=connector;rounded=0;orthogonalLoop=1;jettySize=auto;html=1;exitX=0;exitY=1;exitDx=0;exitDy=0;entryX=0.5;entryY=0;entryDx=0;entryDy=0;strokeColor=default;align=center;verticalAlign=middle;fontFamily=Helvetica;fontSize=11;fontColor=default;labelBackgroundColor=default;endArrow=none;endFill=0;" edge="1" parent="1" source="19SygxmWKAcVOHkyaGbi-121" target="19SygxmWKAcVOHkyaGbi-118">
          <mxGeometry relative="1" as="geometry" />
        </mxCell>
        <mxCell id="19SygxmWKAcVOHkyaGbi-129" style="edgeStyle=none;shape=connector;rounded=0;orthogonalLoop=1;jettySize=auto;html=1;exitX=1;exitY=0.5;exitDx=0;exitDy=0;entryX=0;entryY=0.5;entryDx=0;entryDy=0;strokeColor=default;align=center;verticalAlign=middle;fontFamily=Helvetica;fontSize=11;fontColor=default;labelBackgroundColor=default;endArrow=none;endFill=0;" edge="1" parent="1" source="19SygxmWKAcVOHkyaGbi-121" target="19SygxmWKAcVOHkyaGbi-122">
          <mxGeometry relative="1" as="geometry" />
        </mxCell>
        <mxCell id="19SygxmWKAcVOHkyaGbi-131" style="edgeStyle=none;shape=connector;rounded=0;orthogonalLoop=1;jettySize=auto;html=1;exitX=1;exitY=1;exitDx=0;exitDy=0;entryX=0;entryY=0;entryDx=0;entryDy=0;strokeColor=default;align=center;verticalAlign=middle;fontFamily=Helvetica;fontSize=11;fontColor=default;labelBackgroundColor=default;endArrow=none;endFill=0;" edge="1" parent="1" source="19SygxmWKAcVOHkyaGbi-121" target="19SygxmWKAcVOHkyaGbi-120">
          <mxGeometry relative="1" as="geometry" />
        </mxCell>
        <mxCell id="19SygxmWKAcVOHkyaGbi-121" value="" style="ellipse;whiteSpace=wrap;html=1;aspect=fixed;fillColor=#fff2cc;strokeColor=#d6b656;" vertex="1" parent="1">
          <mxGeometry x="130" y="800" width="20" height="20" as="geometry" />
        </mxCell>
        <mxCell id="19SygxmWKAcVOHkyaGbi-130" style="edgeStyle=none;shape=connector;rounded=0;orthogonalLoop=1;jettySize=auto;html=1;exitX=1;exitY=1;exitDx=0;exitDy=0;entryX=0.5;entryY=0;entryDx=0;entryDy=0;strokeColor=default;align=center;verticalAlign=middle;fontFamily=Helvetica;fontSize=11;fontColor=default;labelBackgroundColor=default;endArrow=none;endFill=0;" edge="1" parent="1" source="19SygxmWKAcVOHkyaGbi-122" target="19SygxmWKAcVOHkyaGbi-123">
          <mxGeometry relative="1" as="geometry" />
        </mxCell>
        <mxCell id="19SygxmWKAcVOHkyaGbi-122" value="" style="ellipse;whiteSpace=wrap;html=1;aspect=fixed;fillColor=#fff2cc;strokeColor=#d6b656;" vertex="1" parent="1">
          <mxGeometry x="170" y="800" width="20" height="20" as="geometry" />
        </mxCell>
        <mxCell id="19SygxmWKAcVOHkyaGbi-223" style="edgeStyle=none;shape=connector;rounded=0;orthogonalLoop=1;jettySize=auto;html=1;exitX=1;exitY=0.5;exitDx=0;exitDy=0;entryX=0;entryY=0.5;entryDx=0;entryDy=0;strokeColor=default;align=center;verticalAlign=middle;fontFamily=Helvetica;fontSize=11;fontColor=default;labelBackgroundColor=default;endArrow=none;endFill=0;" edge="1" parent="1" source="19SygxmWKAcVOHkyaGbi-123" target="19SygxmWKAcVOHkyaGbi-140">
          <mxGeometry relative="1" as="geometry" />
        </mxCell>
        <mxCell id="19SygxmWKAcVOHkyaGbi-123" value="" style="ellipse;whiteSpace=wrap;html=1;aspect=fixed;fillColor=#ffe6cc;strokeColor=#d79b00;" vertex="1" parent="1">
          <mxGeometry x="190" y="830" width="20" height="20" as="geometry" />
        </mxCell>
        <mxCell id="19SygxmWKAcVOHkyaGbi-134" style="edgeStyle=none;shape=connector;rounded=0;orthogonalLoop=1;jettySize=auto;html=1;exitX=1;exitY=0.5;exitDx=0;exitDy=0;entryX=0;entryY=0.5;entryDx=0;entryDy=0;strokeColor=default;align=center;verticalAlign=middle;fontFamily=Helvetica;fontSize=11;fontColor=default;labelBackgroundColor=default;endArrow=none;endFill=0;" edge="1" parent="1" source="19SygxmWKAcVOHkyaGbi-124" target="19SygxmWKAcVOHkyaGbi-125">
          <mxGeometry relative="1" as="geometry" />
        </mxCell>
        <mxCell id="19SygxmWKAcVOHkyaGbi-135" style="edgeStyle=none;shape=connector;rounded=0;orthogonalLoop=1;jettySize=auto;html=1;exitX=1;exitY=0;exitDx=0;exitDy=0;entryX=0;entryY=1;entryDx=0;entryDy=0;strokeColor=default;align=center;verticalAlign=middle;fontFamily=Helvetica;fontSize=11;fontColor=default;labelBackgroundColor=default;endArrow=none;endFill=0;" edge="1" parent="1" source="19SygxmWKAcVOHkyaGbi-124" target="19SygxmWKAcVOHkyaGbi-120">
          <mxGeometry relative="1" as="geometry" />
        </mxCell>
        <mxCell id="19SygxmWKAcVOHkyaGbi-222" style="edgeStyle=none;shape=connector;rounded=0;orthogonalLoop=1;jettySize=auto;html=1;exitX=0.5;exitY=1;exitDx=0;exitDy=0;entryX=0.5;entryY=0;entryDx=0;entryDy=0;strokeColor=default;align=center;verticalAlign=middle;fontFamily=Helvetica;fontSize=11;fontColor=default;labelBackgroundColor=default;endArrow=none;endFill=0;" edge="1" parent="1" source="19SygxmWKAcVOHkyaGbi-124" target="19SygxmWKAcVOHkyaGbi-167">
          <mxGeometry relative="1" as="geometry" />
        </mxCell>
        <mxCell id="19SygxmWKAcVOHkyaGbi-124" value="" style="ellipse;whiteSpace=wrap;html=1;aspect=fixed;fillColor=#ffe6cc;strokeColor=#d79b00;" vertex="1" parent="1">
          <mxGeometry x="130" y="860" width="20" height="20" as="geometry" />
        </mxCell>
        <mxCell id="19SygxmWKAcVOHkyaGbi-137" style="edgeStyle=none;shape=connector;rounded=0;orthogonalLoop=1;jettySize=auto;html=1;exitX=1;exitY=0;exitDx=0;exitDy=0;entryX=0.5;entryY=1;entryDx=0;entryDy=0;strokeColor=default;align=center;verticalAlign=middle;fontFamily=Helvetica;fontSize=11;fontColor=default;labelBackgroundColor=default;endArrow=none;endFill=0;" edge="1" parent="1" source="19SygxmWKAcVOHkyaGbi-125" target="19SygxmWKAcVOHkyaGbi-123">
          <mxGeometry relative="1" as="geometry" />
        </mxCell>
        <mxCell id="19SygxmWKAcVOHkyaGbi-216" style="edgeStyle=none;shape=connector;rounded=0;orthogonalLoop=1;jettySize=auto;html=1;exitX=1;exitY=0.5;exitDx=0;exitDy=0;entryX=0;entryY=0.5;entryDx=0;entryDy=0;strokeColor=default;align=center;verticalAlign=middle;fontFamily=Helvetica;fontSize=11;fontColor=default;labelBackgroundColor=default;endArrow=none;endFill=0;" edge="1" parent="1" source="19SygxmWKAcVOHkyaGbi-125" target="19SygxmWKAcVOHkyaGbi-154">
          <mxGeometry relative="1" as="geometry" />
        </mxCell>
        <mxCell id="19SygxmWKAcVOHkyaGbi-220" style="edgeStyle=none;shape=connector;rounded=0;orthogonalLoop=1;jettySize=auto;html=1;exitX=1;exitY=1;exitDx=0;exitDy=0;entryX=0;entryY=0;entryDx=0;entryDy=0;strokeColor=default;align=center;verticalAlign=middle;fontFamily=Helvetica;fontSize=11;fontColor=default;labelBackgroundColor=default;endArrow=none;endFill=0;" edge="1" parent="1" source="19SygxmWKAcVOHkyaGbi-125" target="19SygxmWKAcVOHkyaGbi-206">
          <mxGeometry relative="1" as="geometry" />
        </mxCell>
        <mxCell id="19SygxmWKAcVOHkyaGbi-125" value="" style="ellipse;whiteSpace=wrap;html=1;aspect=fixed;fillColor=#f8cecc;strokeColor=#b85450;" vertex="1" parent="1">
          <mxGeometry x="170" y="860" width="20" height="20" as="geometry" />
        </mxCell>
        <mxCell id="19SygxmWKAcVOHkyaGbi-138" style="edgeStyle=none;shape=connector;rounded=0;orthogonalLoop=1;jettySize=auto;html=1;exitX=1;exitY=0.5;exitDx=0;exitDy=0;entryX=0;entryY=0.5;entryDx=0;entryDy=0;strokeColor=default;align=center;verticalAlign=middle;fontFamily=Helvetica;fontSize=11;fontColor=default;labelBackgroundColor=default;endArrow=none;endFill=0;" edge="1" parent="1" source="19SygxmWKAcVOHkyaGbi-140" target="19SygxmWKAcVOHkyaGbi-144">
          <mxGeometry relative="1" as="geometry" />
        </mxCell>
        <mxCell id="19SygxmWKAcVOHkyaGbi-139" style="edgeStyle=none;shape=connector;rounded=0;orthogonalLoop=1;jettySize=auto;html=1;exitX=0.5;exitY=1;exitDx=0;exitDy=0;entryX=0;entryY=0;entryDx=0;entryDy=0;strokeColor=default;align=center;verticalAlign=middle;fontFamily=Helvetica;fontSize=11;fontColor=default;labelBackgroundColor=default;endArrow=none;endFill=0;" edge="1" parent="1" source="19SygxmWKAcVOHkyaGbi-140" target="19SygxmWKAcVOHkyaGbi-154">
          <mxGeometry relative="1" as="geometry" />
        </mxCell>
        <mxCell id="19SygxmWKAcVOHkyaGbi-140" value="" style="ellipse;whiteSpace=wrap;html=1;aspect=fixed;fillColor=#ffe6cc;strokeColor=#d79b00;" vertex="1" parent="1">
          <mxGeometry x="231" y="830" width="20" height="20" as="geometry" />
        </mxCell>
        <mxCell id="19SygxmWKAcVOHkyaGbi-141" style="edgeStyle=none;shape=connector;rounded=0;orthogonalLoop=1;jettySize=auto;html=1;exitX=1;exitY=0.5;exitDx=0;exitDy=0;entryX=0;entryY=0.5;entryDx=0;entryDy=0;strokeColor=default;align=center;verticalAlign=middle;fontFamily=Helvetica;fontSize=11;fontColor=default;labelBackgroundColor=default;endArrow=none;endFill=0;" edge="1" parent="1" source="19SygxmWKAcVOHkyaGbi-144" target="19SygxmWKAcVOHkyaGbi-151">
          <mxGeometry relative="1" as="geometry" />
        </mxCell>
        <mxCell id="19SygxmWKAcVOHkyaGbi-142" style="edgeStyle=none;shape=connector;rounded=0;orthogonalLoop=1;jettySize=auto;html=1;exitX=1;exitY=0;exitDx=0;exitDy=0;entryX=0;entryY=1;entryDx=0;entryDy=0;strokeColor=default;align=center;verticalAlign=middle;fontFamily=Helvetica;fontSize=11;fontColor=default;labelBackgroundColor=default;endArrow=none;endFill=0;" edge="1" parent="1" source="19SygxmWKAcVOHkyaGbi-144" target="19SygxmWKAcVOHkyaGbi-150">
          <mxGeometry relative="1" as="geometry" />
        </mxCell>
        <mxCell id="19SygxmWKAcVOHkyaGbi-143" style="edgeStyle=none;shape=connector;rounded=0;orthogonalLoop=1;jettySize=auto;html=1;exitX=1;exitY=1;exitDx=0;exitDy=0;entryX=0.152;entryY=0.241;entryDx=0;entryDy=0;strokeColor=default;align=center;verticalAlign=middle;fontFamily=Helvetica;fontSize=11;fontColor=default;labelBackgroundColor=default;endArrow=none;endFill=0;entryPerimeter=0;" edge="1" parent="1" source="19SygxmWKAcVOHkyaGbi-144" target="19SygxmWKAcVOHkyaGbi-156">
          <mxGeometry relative="1" as="geometry" />
        </mxCell>
        <mxCell id="19SygxmWKAcVOHkyaGbi-144" value="" style="ellipse;whiteSpace=wrap;html=1;aspect=fixed;fillColor=#fff2cc;strokeColor=#d6b656;" vertex="1" parent="1">
          <mxGeometry x="271" y="830" width="20" height="20" as="geometry" />
        </mxCell>
        <mxCell id="19SygxmWKAcVOHkyaGbi-145" style="edgeStyle=none;shape=connector;rounded=0;orthogonalLoop=1;jettySize=auto;html=1;exitX=0;exitY=1;exitDx=0;exitDy=0;entryX=0.5;entryY=0;entryDx=0;entryDy=0;strokeColor=default;align=center;verticalAlign=middle;fontFamily=Helvetica;fontSize=11;fontColor=default;labelBackgroundColor=default;endArrow=none;endFill=0;" edge="1" parent="1" source="19SygxmWKAcVOHkyaGbi-148" target="19SygxmWKAcVOHkyaGbi-140">
          <mxGeometry relative="1" as="geometry" />
        </mxCell>
        <mxCell id="19SygxmWKAcVOHkyaGbi-146" style="edgeStyle=none;shape=connector;rounded=0;orthogonalLoop=1;jettySize=auto;html=1;exitX=1;exitY=0.5;exitDx=0;exitDy=0;entryX=0;entryY=0.5;entryDx=0;entryDy=0;strokeColor=default;align=center;verticalAlign=middle;fontFamily=Helvetica;fontSize=11;fontColor=default;labelBackgroundColor=default;endArrow=none;endFill=0;" edge="1" parent="1" source="19SygxmWKAcVOHkyaGbi-148" target="19SygxmWKAcVOHkyaGbi-150">
          <mxGeometry relative="1" as="geometry" />
        </mxCell>
        <mxCell id="19SygxmWKAcVOHkyaGbi-147" style="edgeStyle=none;shape=connector;rounded=0;orthogonalLoop=1;jettySize=auto;html=1;exitX=1;exitY=1;exitDx=0;exitDy=0;entryX=0;entryY=0;entryDx=0;entryDy=0;strokeColor=default;align=center;verticalAlign=middle;fontFamily=Helvetica;fontSize=11;fontColor=default;labelBackgroundColor=default;endArrow=none;endFill=0;" edge="1" parent="1" source="19SygxmWKAcVOHkyaGbi-148" target="19SygxmWKAcVOHkyaGbi-144">
          <mxGeometry relative="1" as="geometry" />
        </mxCell>
        <mxCell id="19SygxmWKAcVOHkyaGbi-148" value="" style="ellipse;whiteSpace=wrap;html=1;aspect=fixed;fillColor=#fff2cc;strokeColor=#d6b656;" vertex="1" parent="1">
          <mxGeometry x="251" y="800" width="20" height="20" as="geometry" />
        </mxCell>
        <mxCell id="19SygxmWKAcVOHkyaGbi-149" style="edgeStyle=none;shape=connector;rounded=0;orthogonalLoop=1;jettySize=auto;html=1;exitX=1;exitY=1;exitDx=0;exitDy=0;entryX=0.5;entryY=0;entryDx=0;entryDy=0;strokeColor=default;align=center;verticalAlign=middle;fontFamily=Helvetica;fontSize=11;fontColor=default;labelBackgroundColor=default;endArrow=none;endFill=0;" edge="1" parent="1" source="19SygxmWKAcVOHkyaGbi-150" target="19SygxmWKAcVOHkyaGbi-151">
          <mxGeometry relative="1" as="geometry" />
        </mxCell>
        <mxCell id="19SygxmWKAcVOHkyaGbi-150" value="" style="ellipse;whiteSpace=wrap;html=1;aspect=fixed;fillColor=#fff2cc;strokeColor=#d6b656;" vertex="1" parent="1">
          <mxGeometry x="291" y="800" width="20" height="20" as="geometry" />
        </mxCell>
        <mxCell id="19SygxmWKAcVOHkyaGbi-151" value="" style="ellipse;whiteSpace=wrap;html=1;aspect=fixed;fillColor=#fff2cc;strokeColor=#d6b656;" vertex="1" parent="1">
          <mxGeometry x="311" y="830" width="20" height="20" as="geometry" />
        </mxCell>
        <mxCell id="19SygxmWKAcVOHkyaGbi-152" style="edgeStyle=none;shape=connector;rounded=0;orthogonalLoop=1;jettySize=auto;html=1;exitX=1;exitY=0.5;exitDx=0;exitDy=0;entryX=0;entryY=0.5;entryDx=0;entryDy=0;strokeColor=default;align=center;verticalAlign=middle;fontFamily=Helvetica;fontSize=11;fontColor=default;labelBackgroundColor=default;endArrow=none;endFill=0;" edge="1" parent="1" source="19SygxmWKAcVOHkyaGbi-154" target="19SygxmWKAcVOHkyaGbi-156">
          <mxGeometry relative="1" as="geometry" />
        </mxCell>
        <mxCell id="19SygxmWKAcVOHkyaGbi-153" style="edgeStyle=none;shape=connector;rounded=0;orthogonalLoop=1;jettySize=auto;html=1;exitX=1;exitY=0;exitDx=0;exitDy=0;entryX=0;entryY=1;entryDx=0;entryDy=0;strokeColor=default;align=center;verticalAlign=middle;fontFamily=Helvetica;fontSize=11;fontColor=default;labelBackgroundColor=default;endArrow=none;endFill=0;" edge="1" parent="1" source="19SygxmWKAcVOHkyaGbi-154" target="19SygxmWKAcVOHkyaGbi-144">
          <mxGeometry relative="1" as="geometry" />
        </mxCell>
        <mxCell id="19SygxmWKAcVOHkyaGbi-217" style="edgeStyle=none;shape=connector;rounded=0;orthogonalLoop=1;jettySize=auto;html=1;exitX=0.5;exitY=1;exitDx=0;exitDy=0;entryX=0.5;entryY=0;entryDx=0;entryDy=0;strokeColor=default;align=center;verticalAlign=middle;fontFamily=Helvetica;fontSize=11;fontColor=default;labelBackgroundColor=default;endArrow=none;endFill=0;" edge="1" parent="1" source="19SygxmWKAcVOHkyaGbi-154" target="19SygxmWKAcVOHkyaGbi-206">
          <mxGeometry relative="1" as="geometry" />
        </mxCell>
        <mxCell id="19SygxmWKAcVOHkyaGbi-154" value="" style="ellipse;whiteSpace=wrap;html=1;aspect=fixed;fillColor=#f8cecc;strokeColor=#b85450;" vertex="1" parent="1">
          <mxGeometry x="251" y="860" width="20" height="20" as="geometry" />
        </mxCell>
        <mxCell id="19SygxmWKAcVOHkyaGbi-155" style="edgeStyle=none;shape=connector;rounded=0;orthogonalLoop=1;jettySize=auto;html=1;exitX=1;exitY=0;exitDx=0;exitDy=0;entryX=0.5;entryY=1;entryDx=0;entryDy=0;strokeColor=default;align=center;verticalAlign=middle;fontFamily=Helvetica;fontSize=11;fontColor=default;labelBackgroundColor=default;endArrow=none;endFill=0;" edge="1" parent="1" source="19SygxmWKAcVOHkyaGbi-156" target="19SygxmWKAcVOHkyaGbi-151">
          <mxGeometry relative="1" as="geometry" />
        </mxCell>
        <mxCell id="19SygxmWKAcVOHkyaGbi-221" style="edgeStyle=none;shape=connector;rounded=0;orthogonalLoop=1;jettySize=auto;html=1;exitX=0.5;exitY=1;exitDx=0;exitDy=0;entryX=0.5;entryY=0;entryDx=0;entryDy=0;strokeColor=default;align=center;verticalAlign=middle;fontFamily=Helvetica;fontSize=11;fontColor=default;labelBackgroundColor=default;endArrow=none;endFill=0;" edge="1" parent="1" source="19SygxmWKAcVOHkyaGbi-156" target="19SygxmWKAcVOHkyaGbi-208">
          <mxGeometry relative="1" as="geometry" />
        </mxCell>
        <mxCell id="19SygxmWKAcVOHkyaGbi-156" value="" style="ellipse;whiteSpace=wrap;html=1;aspect=fixed;fillColor=#ffe6cc;strokeColor=#d79b00;" vertex="1" parent="1">
          <mxGeometry x="291" y="860" width="20" height="20" as="geometry" />
        </mxCell>
        <mxCell id="19SygxmWKAcVOHkyaGbi-157" style="edgeStyle=none;shape=connector;rounded=0;orthogonalLoop=1;jettySize=auto;html=1;exitX=1;exitY=0.5;exitDx=0;exitDy=0;entryX=0;entryY=0.5;entryDx=0;entryDy=0;strokeColor=default;align=center;verticalAlign=middle;fontFamily=Helvetica;fontSize=11;fontColor=default;labelBackgroundColor=default;endArrow=none;endFill=0;" edge="1" source="19SygxmWKAcVOHkyaGbi-159" target="19SygxmWKAcVOHkyaGbi-163" parent="1">
          <mxGeometry relative="1" as="geometry" />
        </mxCell>
        <mxCell id="19SygxmWKAcVOHkyaGbi-158" style="edgeStyle=none;shape=connector;rounded=0;orthogonalLoop=1;jettySize=auto;html=1;exitX=0.5;exitY=1;exitDx=0;exitDy=0;entryX=0;entryY=0;entryDx=0;entryDy=0;strokeColor=default;align=center;verticalAlign=middle;fontFamily=Helvetica;fontSize=11;fontColor=default;labelBackgroundColor=default;endArrow=none;endFill=0;" edge="1" source="19SygxmWKAcVOHkyaGbi-159" target="19SygxmWKAcVOHkyaGbi-173" parent="1">
          <mxGeometry relative="1" as="geometry" />
        </mxCell>
        <mxCell id="19SygxmWKAcVOHkyaGbi-159" value="" style="ellipse;whiteSpace=wrap;html=1;aspect=fixed;fillColor=#fff2cc;strokeColor=#d6b656;" vertex="1" parent="1">
          <mxGeometry x="110" y="942" width="20" height="20" as="geometry" />
        </mxCell>
        <mxCell id="19SygxmWKAcVOHkyaGbi-160" style="edgeStyle=none;shape=connector;rounded=0;orthogonalLoop=1;jettySize=auto;html=1;exitX=1;exitY=0.5;exitDx=0;exitDy=0;entryX=0;entryY=0.5;entryDx=0;entryDy=0;strokeColor=default;align=center;verticalAlign=middle;fontFamily=Helvetica;fontSize=11;fontColor=default;labelBackgroundColor=default;endArrow=none;endFill=0;" edge="1" source="19SygxmWKAcVOHkyaGbi-163" target="19SygxmWKAcVOHkyaGbi-170" parent="1">
          <mxGeometry relative="1" as="geometry" />
        </mxCell>
        <mxCell id="19SygxmWKAcVOHkyaGbi-161" style="edgeStyle=none;shape=connector;rounded=0;orthogonalLoop=1;jettySize=auto;html=1;exitX=1;exitY=0;exitDx=0;exitDy=0;entryX=0;entryY=1;entryDx=0;entryDy=0;strokeColor=default;align=center;verticalAlign=middle;fontFamily=Helvetica;fontSize=11;fontColor=default;labelBackgroundColor=default;endArrow=none;endFill=0;" edge="1" source="19SygxmWKAcVOHkyaGbi-163" target="19SygxmWKAcVOHkyaGbi-169" parent="1">
          <mxGeometry relative="1" as="geometry" />
        </mxCell>
        <mxCell id="19SygxmWKAcVOHkyaGbi-162" style="edgeStyle=none;shape=connector;rounded=0;orthogonalLoop=1;jettySize=auto;html=1;exitX=1;exitY=1;exitDx=0;exitDy=0;entryX=0.152;entryY=0.241;entryDx=0;entryDy=0;strokeColor=default;align=center;verticalAlign=middle;fontFamily=Helvetica;fontSize=11;fontColor=default;labelBackgroundColor=default;endArrow=none;endFill=0;entryPerimeter=0;" edge="1" source="19SygxmWKAcVOHkyaGbi-163" target="19SygxmWKAcVOHkyaGbi-175" parent="1">
          <mxGeometry relative="1" as="geometry" />
        </mxCell>
        <mxCell id="19SygxmWKAcVOHkyaGbi-163" value="" style="ellipse;whiteSpace=wrap;html=1;aspect=fixed;fillColor=#fff2cc;strokeColor=#d6b656;" vertex="1" parent="1">
          <mxGeometry x="150" y="942" width="20" height="20" as="geometry" />
        </mxCell>
        <mxCell id="19SygxmWKAcVOHkyaGbi-164" style="edgeStyle=none;shape=connector;rounded=0;orthogonalLoop=1;jettySize=auto;html=1;exitX=0;exitY=1;exitDx=0;exitDy=0;entryX=0.5;entryY=0;entryDx=0;entryDy=0;strokeColor=default;align=center;verticalAlign=middle;fontFamily=Helvetica;fontSize=11;fontColor=default;labelBackgroundColor=default;endArrow=none;endFill=0;" edge="1" source="19SygxmWKAcVOHkyaGbi-167" target="19SygxmWKAcVOHkyaGbi-159" parent="1">
          <mxGeometry relative="1" as="geometry" />
        </mxCell>
        <mxCell id="19SygxmWKAcVOHkyaGbi-165" style="edgeStyle=none;shape=connector;rounded=0;orthogonalLoop=1;jettySize=auto;html=1;exitX=1;exitY=0.5;exitDx=0;exitDy=0;entryX=0;entryY=0.5;entryDx=0;entryDy=0;strokeColor=default;align=center;verticalAlign=middle;fontFamily=Helvetica;fontSize=11;fontColor=default;labelBackgroundColor=default;endArrow=none;endFill=0;" edge="1" source="19SygxmWKAcVOHkyaGbi-167" target="19SygxmWKAcVOHkyaGbi-169" parent="1">
          <mxGeometry relative="1" as="geometry" />
        </mxCell>
        <mxCell id="19SygxmWKAcVOHkyaGbi-166" style="edgeStyle=none;shape=connector;rounded=0;orthogonalLoop=1;jettySize=auto;html=1;exitX=1;exitY=1;exitDx=0;exitDy=0;entryX=0;entryY=0;entryDx=0;entryDy=0;strokeColor=default;align=center;verticalAlign=middle;fontFamily=Helvetica;fontSize=11;fontColor=default;labelBackgroundColor=default;endArrow=none;endFill=0;" edge="1" source="19SygxmWKAcVOHkyaGbi-167" target="19SygxmWKAcVOHkyaGbi-163" parent="1">
          <mxGeometry relative="1" as="geometry" />
        </mxCell>
        <mxCell id="19SygxmWKAcVOHkyaGbi-167" value="" style="ellipse;whiteSpace=wrap;html=1;aspect=fixed;fillColor=#ffe6cc;strokeColor=#d79b00;" vertex="1" parent="1">
          <mxGeometry x="130" y="912" width="20" height="20" as="geometry" />
        </mxCell>
        <mxCell id="19SygxmWKAcVOHkyaGbi-168" style="edgeStyle=none;shape=connector;rounded=0;orthogonalLoop=1;jettySize=auto;html=1;exitX=1;exitY=1;exitDx=0;exitDy=0;entryX=0.5;entryY=0;entryDx=0;entryDy=0;strokeColor=default;align=center;verticalAlign=middle;fontFamily=Helvetica;fontSize=11;fontColor=default;labelBackgroundColor=default;endArrow=none;endFill=0;" edge="1" source="19SygxmWKAcVOHkyaGbi-169" target="19SygxmWKAcVOHkyaGbi-170" parent="1">
          <mxGeometry relative="1" as="geometry" />
        </mxCell>
        <mxCell id="19SygxmWKAcVOHkyaGbi-215" style="edgeStyle=none;shape=connector;rounded=0;orthogonalLoop=1;jettySize=auto;html=1;exitX=0.5;exitY=0;exitDx=0;exitDy=0;entryX=0.5;entryY=1;entryDx=0;entryDy=0;strokeColor=default;align=center;verticalAlign=middle;fontFamily=Helvetica;fontSize=11;fontColor=default;labelBackgroundColor=default;endArrow=none;endFill=0;" edge="1" parent="1" source="19SygxmWKAcVOHkyaGbi-169" target="19SygxmWKAcVOHkyaGbi-125">
          <mxGeometry relative="1" as="geometry" />
        </mxCell>
        <mxCell id="19SygxmWKAcVOHkyaGbi-218" style="edgeStyle=none;shape=connector;rounded=0;orthogonalLoop=1;jettySize=auto;html=1;exitX=1;exitY=0.5;exitDx=0;exitDy=0;entryX=0;entryY=0.5;entryDx=0;entryDy=0;strokeColor=default;align=center;verticalAlign=middle;fontFamily=Helvetica;fontSize=11;fontColor=default;labelBackgroundColor=default;endArrow=none;endFill=0;" edge="1" parent="1" source="19SygxmWKAcVOHkyaGbi-169" target="19SygxmWKAcVOHkyaGbi-206">
          <mxGeometry relative="1" as="geometry" />
        </mxCell>
        <mxCell id="19SygxmWKAcVOHkyaGbi-219" style="edgeStyle=none;shape=connector;rounded=0;orthogonalLoop=1;jettySize=auto;html=1;exitX=1;exitY=0;exitDx=0;exitDy=0;entryX=0;entryY=1;entryDx=0;entryDy=0;strokeColor=default;align=center;verticalAlign=middle;fontFamily=Helvetica;fontSize=11;fontColor=default;labelBackgroundColor=default;endArrow=none;endFill=0;" edge="1" parent="1" source="19SygxmWKAcVOHkyaGbi-169" target="19SygxmWKAcVOHkyaGbi-154">
          <mxGeometry relative="1" as="geometry" />
        </mxCell>
        <mxCell id="19SygxmWKAcVOHkyaGbi-169" value="" style="ellipse;whiteSpace=wrap;html=1;aspect=fixed;fillColor=#f8cecc;strokeColor=#b85450;" vertex="1" parent="1">
          <mxGeometry x="170" y="912" width="20" height="20" as="geometry" />
        </mxCell>
        <mxCell id="19SygxmWKAcVOHkyaGbi-224" style="edgeStyle=none;shape=connector;rounded=0;orthogonalLoop=1;jettySize=auto;html=1;exitX=1;exitY=0.5;exitDx=0;exitDy=0;entryX=0;entryY=0.5;entryDx=0;entryDy=0;strokeColor=default;align=center;verticalAlign=middle;fontFamily=Helvetica;fontSize=11;fontColor=default;labelBackgroundColor=default;endArrow=none;endFill=0;" edge="1" parent="1" source="19SygxmWKAcVOHkyaGbi-170" target="19SygxmWKAcVOHkyaGbi-198">
          <mxGeometry relative="1" as="geometry" />
        </mxCell>
        <mxCell id="19SygxmWKAcVOHkyaGbi-170" value="" style="ellipse;whiteSpace=wrap;html=1;aspect=fixed;fillColor=#ffe6cc;strokeColor=#d79b00;" vertex="1" parent="1">
          <mxGeometry x="190" y="942" width="20" height="20" as="geometry" />
        </mxCell>
        <mxCell id="19SygxmWKAcVOHkyaGbi-171" style="edgeStyle=none;shape=connector;rounded=0;orthogonalLoop=1;jettySize=auto;html=1;exitX=1;exitY=0.5;exitDx=0;exitDy=0;entryX=0;entryY=0.5;entryDx=0;entryDy=0;strokeColor=default;align=center;verticalAlign=middle;fontFamily=Helvetica;fontSize=11;fontColor=default;labelBackgroundColor=default;endArrow=none;endFill=0;" edge="1" source="19SygxmWKAcVOHkyaGbi-173" target="19SygxmWKAcVOHkyaGbi-175" parent="1">
          <mxGeometry relative="1" as="geometry" />
        </mxCell>
        <mxCell id="19SygxmWKAcVOHkyaGbi-172" style="edgeStyle=none;shape=connector;rounded=0;orthogonalLoop=1;jettySize=auto;html=1;exitX=1;exitY=0;exitDx=0;exitDy=0;entryX=0;entryY=1;entryDx=0;entryDy=0;strokeColor=default;align=center;verticalAlign=middle;fontFamily=Helvetica;fontSize=11;fontColor=default;labelBackgroundColor=default;endArrow=none;endFill=0;" edge="1" source="19SygxmWKAcVOHkyaGbi-173" target="19SygxmWKAcVOHkyaGbi-163" parent="1">
          <mxGeometry relative="1" as="geometry" />
        </mxCell>
        <mxCell id="19SygxmWKAcVOHkyaGbi-173" value="" style="ellipse;whiteSpace=wrap;html=1;aspect=fixed;fillColor=#fff2cc;strokeColor=#d6b656;" vertex="1" parent="1">
          <mxGeometry x="130" y="972" width="20" height="20" as="geometry" />
        </mxCell>
        <mxCell id="19SygxmWKAcVOHkyaGbi-174" style="edgeStyle=none;shape=connector;rounded=0;orthogonalLoop=1;jettySize=auto;html=1;exitX=1;exitY=0;exitDx=0;exitDy=0;entryX=0.5;entryY=1;entryDx=0;entryDy=0;strokeColor=default;align=center;verticalAlign=middle;fontFamily=Helvetica;fontSize=11;fontColor=default;labelBackgroundColor=default;endArrow=none;endFill=0;" edge="1" source="19SygxmWKAcVOHkyaGbi-175" target="19SygxmWKAcVOHkyaGbi-170" parent="1">
          <mxGeometry relative="1" as="geometry" />
        </mxCell>
        <mxCell id="19SygxmWKAcVOHkyaGbi-175" value="" style="ellipse;whiteSpace=wrap;html=1;aspect=fixed;fillColor=#fff2cc;strokeColor=#d6b656;" vertex="1" parent="1">
          <mxGeometry x="170" y="972" width="20" height="20" as="geometry" />
        </mxCell>
        <mxCell id="19SygxmWKAcVOHkyaGbi-196" style="edgeStyle=none;shape=connector;rounded=0;orthogonalLoop=1;jettySize=auto;html=1;exitX=1;exitY=0.5;exitDx=0;exitDy=0;entryX=0;entryY=0.5;entryDx=0;entryDy=0;strokeColor=default;align=center;verticalAlign=middle;fontFamily=Helvetica;fontSize=11;fontColor=default;labelBackgroundColor=default;endArrow=none;endFill=0;" edge="1" parent="1" source="19SygxmWKAcVOHkyaGbi-198" target="19SygxmWKAcVOHkyaGbi-202">
          <mxGeometry relative="1" as="geometry" />
        </mxCell>
        <mxCell id="19SygxmWKAcVOHkyaGbi-197" style="edgeStyle=none;shape=connector;rounded=0;orthogonalLoop=1;jettySize=auto;html=1;exitX=0.5;exitY=1;exitDx=0;exitDy=0;entryX=0;entryY=0;entryDx=0;entryDy=0;strokeColor=default;align=center;verticalAlign=middle;fontFamily=Helvetica;fontSize=11;fontColor=default;labelBackgroundColor=default;endArrow=none;endFill=0;" edge="1" parent="1" source="19SygxmWKAcVOHkyaGbi-198" target="19SygxmWKAcVOHkyaGbi-212">
          <mxGeometry relative="1" as="geometry" />
        </mxCell>
        <mxCell id="19SygxmWKAcVOHkyaGbi-198" value="" style="ellipse;whiteSpace=wrap;html=1;aspect=fixed;fillColor=#ffe6cc;strokeColor=#d79b00;" vertex="1" parent="1">
          <mxGeometry x="231" y="942" width="20" height="20" as="geometry" />
        </mxCell>
        <mxCell id="19SygxmWKAcVOHkyaGbi-199" style="edgeStyle=none;shape=connector;rounded=0;orthogonalLoop=1;jettySize=auto;html=1;exitX=1;exitY=0.5;exitDx=0;exitDy=0;entryX=0;entryY=0.5;entryDx=0;entryDy=0;strokeColor=default;align=center;verticalAlign=middle;fontFamily=Helvetica;fontSize=11;fontColor=default;labelBackgroundColor=default;endArrow=none;endFill=0;" edge="1" parent="1" source="19SygxmWKAcVOHkyaGbi-202" target="19SygxmWKAcVOHkyaGbi-209">
          <mxGeometry relative="1" as="geometry" />
        </mxCell>
        <mxCell id="19SygxmWKAcVOHkyaGbi-200" style="edgeStyle=none;shape=connector;rounded=0;orthogonalLoop=1;jettySize=auto;html=1;exitX=1;exitY=0;exitDx=0;exitDy=0;entryX=0;entryY=1;entryDx=0;entryDy=0;strokeColor=default;align=center;verticalAlign=middle;fontFamily=Helvetica;fontSize=11;fontColor=default;labelBackgroundColor=default;endArrow=none;endFill=0;" edge="1" parent="1" source="19SygxmWKAcVOHkyaGbi-202" target="19SygxmWKAcVOHkyaGbi-208">
          <mxGeometry relative="1" as="geometry" />
        </mxCell>
        <mxCell id="19SygxmWKAcVOHkyaGbi-201" style="edgeStyle=none;shape=connector;rounded=0;orthogonalLoop=1;jettySize=auto;html=1;exitX=1;exitY=1;exitDx=0;exitDy=0;entryX=0.152;entryY=0.241;entryDx=0;entryDy=0;strokeColor=default;align=center;verticalAlign=middle;fontFamily=Helvetica;fontSize=11;fontColor=default;labelBackgroundColor=default;endArrow=none;endFill=0;entryPerimeter=0;" edge="1" parent="1" source="19SygxmWKAcVOHkyaGbi-202" target="19SygxmWKAcVOHkyaGbi-214">
          <mxGeometry relative="1" as="geometry" />
        </mxCell>
        <mxCell id="19SygxmWKAcVOHkyaGbi-202" value="" style="ellipse;whiteSpace=wrap;html=1;aspect=fixed;fillColor=#fff2cc;strokeColor=#d6b656;" vertex="1" parent="1">
          <mxGeometry x="271" y="942" width="20" height="20" as="geometry" />
        </mxCell>
        <mxCell id="19SygxmWKAcVOHkyaGbi-203" style="edgeStyle=none;shape=connector;rounded=0;orthogonalLoop=1;jettySize=auto;html=1;exitX=0;exitY=1;exitDx=0;exitDy=0;entryX=0.5;entryY=0;entryDx=0;entryDy=0;strokeColor=default;align=center;verticalAlign=middle;fontFamily=Helvetica;fontSize=11;fontColor=default;labelBackgroundColor=default;endArrow=none;endFill=0;" edge="1" parent="1" source="19SygxmWKAcVOHkyaGbi-206" target="19SygxmWKAcVOHkyaGbi-198">
          <mxGeometry relative="1" as="geometry" />
        </mxCell>
        <mxCell id="19SygxmWKAcVOHkyaGbi-204" style="edgeStyle=none;shape=connector;rounded=0;orthogonalLoop=1;jettySize=auto;html=1;exitX=1;exitY=0.5;exitDx=0;exitDy=0;entryX=0;entryY=0.5;entryDx=0;entryDy=0;strokeColor=default;align=center;verticalAlign=middle;fontFamily=Helvetica;fontSize=11;fontColor=default;labelBackgroundColor=default;endArrow=none;endFill=0;" edge="1" parent="1" source="19SygxmWKAcVOHkyaGbi-206" target="19SygxmWKAcVOHkyaGbi-208">
          <mxGeometry relative="1" as="geometry" />
        </mxCell>
        <mxCell id="19SygxmWKAcVOHkyaGbi-205" style="edgeStyle=none;shape=connector;rounded=0;orthogonalLoop=1;jettySize=auto;html=1;exitX=1;exitY=1;exitDx=0;exitDy=0;entryX=0;entryY=0;entryDx=0;entryDy=0;strokeColor=default;align=center;verticalAlign=middle;fontFamily=Helvetica;fontSize=11;fontColor=default;labelBackgroundColor=default;endArrow=none;endFill=0;" edge="1" parent="1" source="19SygxmWKAcVOHkyaGbi-206" target="19SygxmWKAcVOHkyaGbi-202">
          <mxGeometry relative="1" as="geometry" />
        </mxCell>
        <mxCell id="19SygxmWKAcVOHkyaGbi-206" value="" style="ellipse;whiteSpace=wrap;html=1;aspect=fixed;fillColor=#f8cecc;strokeColor=#b85450;" vertex="1" parent="1">
          <mxGeometry x="251" y="912" width="20" height="20" as="geometry" />
        </mxCell>
        <mxCell id="19SygxmWKAcVOHkyaGbi-207" style="edgeStyle=none;shape=connector;rounded=0;orthogonalLoop=1;jettySize=auto;html=1;exitX=1;exitY=1;exitDx=0;exitDy=0;entryX=0.5;entryY=0;entryDx=0;entryDy=0;strokeColor=default;align=center;verticalAlign=middle;fontFamily=Helvetica;fontSize=11;fontColor=default;labelBackgroundColor=default;endArrow=none;endFill=0;" edge="1" parent="1" source="19SygxmWKAcVOHkyaGbi-208" target="19SygxmWKAcVOHkyaGbi-209">
          <mxGeometry relative="1" as="geometry" />
        </mxCell>
        <mxCell id="19SygxmWKAcVOHkyaGbi-208" value="" style="ellipse;whiteSpace=wrap;html=1;aspect=fixed;fillColor=#ffe6cc;strokeColor=#d79b00;" vertex="1" parent="1">
          <mxGeometry x="291" y="912" width="20" height="20" as="geometry" />
        </mxCell>
        <mxCell id="19SygxmWKAcVOHkyaGbi-209" value="" style="ellipse;whiteSpace=wrap;html=1;aspect=fixed;fillColor=#fff2cc;strokeColor=#d6b656;" vertex="1" parent="1">
          <mxGeometry x="311" y="942" width="20" height="20" as="geometry" />
        </mxCell>
        <mxCell id="19SygxmWKAcVOHkyaGbi-210" style="edgeStyle=none;shape=connector;rounded=0;orthogonalLoop=1;jettySize=auto;html=1;exitX=1;exitY=0.5;exitDx=0;exitDy=0;entryX=0;entryY=0.5;entryDx=0;entryDy=0;strokeColor=default;align=center;verticalAlign=middle;fontFamily=Helvetica;fontSize=11;fontColor=default;labelBackgroundColor=default;endArrow=none;endFill=0;" edge="1" parent="1" source="19SygxmWKAcVOHkyaGbi-212" target="19SygxmWKAcVOHkyaGbi-214">
          <mxGeometry relative="1" as="geometry" />
        </mxCell>
        <mxCell id="19SygxmWKAcVOHkyaGbi-211" style="edgeStyle=none;shape=connector;rounded=0;orthogonalLoop=1;jettySize=auto;html=1;exitX=1;exitY=0;exitDx=0;exitDy=0;entryX=0;entryY=1;entryDx=0;entryDy=0;strokeColor=default;align=center;verticalAlign=middle;fontFamily=Helvetica;fontSize=11;fontColor=default;labelBackgroundColor=default;endArrow=none;endFill=0;" edge="1" parent="1" source="19SygxmWKAcVOHkyaGbi-212" target="19SygxmWKAcVOHkyaGbi-202">
          <mxGeometry relative="1" as="geometry" />
        </mxCell>
        <mxCell id="19SygxmWKAcVOHkyaGbi-212" value="" style="ellipse;whiteSpace=wrap;html=1;aspect=fixed;fillColor=#fff2cc;strokeColor=#d6b656;" vertex="1" parent="1">
          <mxGeometry x="251" y="972" width="20" height="20" as="geometry" />
        </mxCell>
        <mxCell id="19SygxmWKAcVOHkyaGbi-213" style="edgeStyle=none;shape=connector;rounded=0;orthogonalLoop=1;jettySize=auto;html=1;exitX=1;exitY=0;exitDx=0;exitDy=0;entryX=0.5;entryY=1;entryDx=0;entryDy=0;strokeColor=default;align=center;verticalAlign=middle;fontFamily=Helvetica;fontSize=11;fontColor=default;labelBackgroundColor=default;endArrow=none;endFill=0;" edge="1" parent="1" source="19SygxmWKAcVOHkyaGbi-214" target="19SygxmWKAcVOHkyaGbi-209">
          <mxGeometry relative="1" as="geometry" />
        </mxCell>
        <mxCell id="19SygxmWKAcVOHkyaGbi-214" value="" style="ellipse;whiteSpace=wrap;html=1;aspect=fixed;fillColor=#fff2cc;strokeColor=#d6b656;" vertex="1" parent="1">
          <mxGeometry x="291" y="972" width="20" height="20" as="geometry" />
        </mxCell>
        <mxCell id="19SygxmWKAcVOHkyaGbi-225" value="" style="ellipse;whiteSpace=wrap;html=1;aspect=fixed;fillColor=#d5e8d4;strokeColor=#82b366;" vertex="1" parent="1">
          <mxGeometry x="150" y="770" width="20" height="20" as="geometry" />
        </mxCell>
        <mxCell id="19SygxmWKAcVOHkyaGbi-255" style="edgeStyle=none;shape=connector;rounded=0;orthogonalLoop=1;jettySize=auto;html=1;exitX=1;exitY=1;exitDx=0;exitDy=0;entryX=0;entryY=0;entryDx=0;entryDy=0;strokeColor=default;align=center;verticalAlign=middle;fontFamily=Helvetica;fontSize=11;fontColor=default;labelBackgroundColor=default;endArrow=none;endFill=0;" edge="1" parent="1" source="19SygxmWKAcVOHkyaGbi-226" target="19SygxmWKAcVOHkyaGbi-118">
          <mxGeometry relative="1" as="geometry" />
        </mxCell>
        <mxCell id="19SygxmWKAcVOHkyaGbi-226" value="" style="ellipse;whiteSpace=wrap;html=1;aspect=fixed;fillColor=#d5e8d4;strokeColor=#82b366;" vertex="1" parent="1">
          <mxGeometry x="90" y="800" width="20" height="20" as="geometry" />
        </mxCell>
        <mxCell id="19SygxmWKAcVOHkyaGbi-254" style="edgeStyle=none;shape=connector;rounded=0;orthogonalLoop=1;jettySize=auto;html=1;exitX=1;exitY=1;exitDx=0;exitDy=0;entryX=0;entryY=0;entryDx=0;entryDy=0;strokeColor=default;align=center;verticalAlign=middle;fontFamily=Helvetica;fontSize=11;fontColor=default;labelBackgroundColor=default;endArrow=none;endFill=0;" edge="1" parent="1" source="19SygxmWKAcVOHkyaGbi-227" target="19SygxmWKAcVOHkyaGbi-121">
          <mxGeometry relative="1" as="geometry" />
        </mxCell>
        <mxCell id="19SygxmWKAcVOHkyaGbi-227" value="" style="ellipse;whiteSpace=wrap;html=1;aspect=fixed;fillColor=#d5e8d4;strokeColor=#82b366;" vertex="1" parent="1">
          <mxGeometry x="110" y="770" width="20" height="20" as="geometry" />
        </mxCell>
        <mxCell id="19SygxmWKAcVOHkyaGbi-245" style="edgeStyle=none;shape=connector;rounded=0;orthogonalLoop=1;jettySize=auto;html=1;exitX=1;exitY=0.5;exitDx=0;exitDy=0;entryX=0;entryY=0.5;entryDx=0;entryDy=0;strokeColor=default;align=center;verticalAlign=middle;fontFamily=Helvetica;fontSize=11;fontColor=default;labelBackgroundColor=default;endArrow=none;endFill=0;" edge="1" parent="1" source="19SygxmWKAcVOHkyaGbi-228" target="19SygxmWKAcVOHkyaGbi-124">
          <mxGeometry relative="1" as="geometry" />
        </mxCell>
        <mxCell id="19SygxmWKAcVOHkyaGbi-228" value="" style="ellipse;whiteSpace=wrap;html=1;aspect=fixed;fillColor=#d5e8d4;strokeColor=#82b366;" vertex="1" parent="1">
          <mxGeometry x="90" y="860" width="20" height="20" as="geometry" />
        </mxCell>
        <mxCell id="19SygxmWKAcVOHkyaGbi-247" style="edgeStyle=none;shape=connector;rounded=0;orthogonalLoop=1;jettySize=auto;html=1;exitX=0.5;exitY=1;exitDx=0;exitDy=0;entryX=0.5;entryY=0;entryDx=0;entryDy=0;strokeColor=default;align=center;verticalAlign=middle;fontFamily=Helvetica;fontSize=11;fontColor=default;labelBackgroundColor=default;endArrow=none;endFill=0;" edge="1" parent="1" source="19SygxmWKAcVOHkyaGbi-229" target="19SygxmWKAcVOHkyaGbi-123">
          <mxGeometry relative="1" as="geometry" />
        </mxCell>
        <mxCell id="19SygxmWKAcVOHkyaGbi-229" value="" style="ellipse;whiteSpace=wrap;html=1;aspect=fixed;fillColor=#d5e8d4;strokeColor=#82b366;" vertex="1" parent="1">
          <mxGeometry x="190" y="770" width="20" height="20" as="geometry" />
        </mxCell>
        <mxCell id="19SygxmWKAcVOHkyaGbi-230" value="" style="ellipse;whiteSpace=wrap;html=1;aspect=fixed;fillColor=#d5e8d4;strokeColor=#82b366;" vertex="1" parent="1">
          <mxGeometry x="271" y="770" width="20" height="20" as="geometry" />
        </mxCell>
        <mxCell id="19SygxmWKAcVOHkyaGbi-252" style="edgeStyle=none;shape=connector;rounded=0;orthogonalLoop=1;jettySize=auto;html=1;exitX=0.5;exitY=1;exitDx=0;exitDy=0;strokeColor=default;align=center;verticalAlign=middle;fontFamily=Helvetica;fontSize=11;fontColor=default;labelBackgroundColor=default;endArrow=none;endFill=0;" edge="1" parent="1" source="19SygxmWKAcVOHkyaGbi-231">
          <mxGeometry relative="1" as="geometry">
            <mxPoint x="241" y="830" as="targetPoint" />
          </mxGeometry>
        </mxCell>
        <mxCell id="19SygxmWKAcVOHkyaGbi-231" value="" style="ellipse;whiteSpace=wrap;html=1;aspect=fixed;fillColor=#d5e8d4;strokeColor=#82b366;" vertex="1" parent="1">
          <mxGeometry x="231" y="770" width="20" height="20" as="geometry" />
        </mxCell>
        <mxCell id="19SygxmWKAcVOHkyaGbi-250" style="edgeStyle=none;shape=connector;rounded=0;orthogonalLoop=1;jettySize=auto;html=1;exitX=0;exitY=1;exitDx=0;exitDy=0;entryX=1;entryY=0;entryDx=0;entryDy=0;strokeColor=default;align=center;verticalAlign=middle;fontFamily=Helvetica;fontSize=11;fontColor=default;labelBackgroundColor=default;endArrow=none;endFill=0;" edge="1" parent="1" source="19SygxmWKAcVOHkyaGbi-232" target="19SygxmWKAcVOHkyaGbi-150">
          <mxGeometry relative="1" as="geometry" />
        </mxCell>
        <mxCell id="19SygxmWKAcVOHkyaGbi-232" value="" style="ellipse;whiteSpace=wrap;html=1;aspect=fixed;fillColor=#d5e8d4;strokeColor=#82b366;" vertex="1" parent="1">
          <mxGeometry x="311" y="770" width="20" height="20" as="geometry" />
        </mxCell>
        <mxCell id="19SygxmWKAcVOHkyaGbi-246" style="edgeStyle=none;shape=connector;rounded=0;orthogonalLoop=1;jettySize=auto;html=1;exitX=1;exitY=0.5;exitDx=0;exitDy=0;entryX=0;entryY=0.5;entryDx=0;entryDy=0;strokeColor=default;align=center;verticalAlign=middle;fontFamily=Helvetica;fontSize=11;fontColor=default;labelBackgroundColor=default;endArrow=none;endFill=0;" edge="1" parent="1" source="19SygxmWKAcVOHkyaGbi-233" target="19SygxmWKAcVOHkyaGbi-167">
          <mxGeometry relative="1" as="geometry" />
        </mxCell>
        <mxCell id="19SygxmWKAcVOHkyaGbi-233" value="" style="ellipse;whiteSpace=wrap;html=1;aspect=fixed;fillColor=#d5e8d4;strokeColor=#82b366;" vertex="1" parent="1">
          <mxGeometry x="90" y="912" width="20" height="20" as="geometry" />
        </mxCell>
        <mxCell id="19SygxmWKAcVOHkyaGbi-256" style="edgeStyle=none;shape=connector;rounded=0;orthogonalLoop=1;jettySize=auto;html=1;exitX=1;exitY=0;exitDx=0;exitDy=0;entryX=0;entryY=1;entryDx=0;entryDy=0;strokeColor=default;align=center;verticalAlign=middle;fontFamily=Helvetica;fontSize=11;fontColor=default;labelBackgroundColor=default;endArrow=none;endFill=0;" edge="1" parent="1" source="19SygxmWKAcVOHkyaGbi-234" target="19SygxmWKAcVOHkyaGbi-159">
          <mxGeometry relative="1" as="geometry" />
        </mxCell>
        <mxCell id="19SygxmWKAcVOHkyaGbi-234" value="" style="ellipse;whiteSpace=wrap;html=1;aspect=fixed;fillColor=#d5e8d4;strokeColor=#82b366;" vertex="1" parent="1">
          <mxGeometry x="90" y="972" width="20" height="20" as="geometry" />
        </mxCell>
        <mxCell id="19SygxmWKAcVOHkyaGbi-235" value="" style="ellipse;whiteSpace=wrap;html=1;aspect=fixed;fillColor=#d5e8d4;strokeColor=#82b366;" vertex="1" parent="1">
          <mxGeometry x="340" y="800" width="20" height="20" as="geometry" />
        </mxCell>
        <mxCell id="19SygxmWKAcVOHkyaGbi-248" style="edgeStyle=none;shape=connector;rounded=0;orthogonalLoop=1;jettySize=auto;html=1;exitX=0;exitY=0.5;exitDx=0;exitDy=0;entryX=1;entryY=0.5;entryDx=0;entryDy=0;strokeColor=default;align=center;verticalAlign=middle;fontFamily=Helvetica;fontSize=11;fontColor=default;labelBackgroundColor=default;endArrow=none;endFill=0;" edge="1" parent="1" source="19SygxmWKAcVOHkyaGbi-236" target="19SygxmWKAcVOHkyaGbi-156">
          <mxGeometry relative="1" as="geometry" />
        </mxCell>
        <mxCell id="19SygxmWKAcVOHkyaGbi-236" value="" style="ellipse;whiteSpace=wrap;html=1;aspect=fixed;fillColor=#d5e8d4;strokeColor=#82b366;" vertex="1" parent="1">
          <mxGeometry x="340" y="860" width="20" height="20" as="geometry" />
        </mxCell>
        <mxCell id="19SygxmWKAcVOHkyaGbi-265" style="edgeStyle=none;shape=connector;rounded=0;orthogonalLoop=1;jettySize=auto;html=1;exitX=0;exitY=0.5;exitDx=0;exitDy=0;entryX=1;entryY=0.5;entryDx=0;entryDy=0;strokeColor=default;align=center;verticalAlign=middle;fontFamily=Helvetica;fontSize=11;fontColor=default;labelBackgroundColor=default;endArrow=none;endFill=0;" edge="1" parent="1" source="19SygxmWKAcVOHkyaGbi-237" target="19SygxmWKAcVOHkyaGbi-208">
          <mxGeometry relative="1" as="geometry" />
        </mxCell>
        <mxCell id="19SygxmWKAcVOHkyaGbi-237" value="" style="ellipse;whiteSpace=wrap;html=1;aspect=fixed;fillColor=#d5e8d4;strokeColor=#82b366;" vertex="1" parent="1">
          <mxGeometry x="340" y="912" width="20" height="20" as="geometry" />
        </mxCell>
        <mxCell id="19SygxmWKAcVOHkyaGbi-238" value="" style="ellipse;whiteSpace=wrap;html=1;aspect=fixed;fillColor=#d5e8d4;strokeColor=#82b366;" vertex="1" parent="1">
          <mxGeometry x="340" y="972" width="20" height="20" as="geometry" />
        </mxCell>
        <mxCell id="19SygxmWKAcVOHkyaGbi-239" value="" style="ellipse;whiteSpace=wrap;html=1;aspect=fixed;fillColor=#d5e8d4;strokeColor=#82b366;" vertex="1" parent="1">
          <mxGeometry x="149.5" y="1010" width="20" height="20" as="geometry" />
        </mxCell>
        <mxCell id="19SygxmWKAcVOHkyaGbi-257" style="edgeStyle=none;shape=connector;rounded=0;orthogonalLoop=1;jettySize=auto;html=1;exitX=1;exitY=0;exitDx=0;exitDy=0;entryX=0.5;entryY=1;entryDx=0;entryDy=0;strokeColor=default;align=center;verticalAlign=middle;fontFamily=Helvetica;fontSize=11;fontColor=default;labelBackgroundColor=default;endArrow=none;endFill=0;" edge="1" parent="1" source="19SygxmWKAcVOHkyaGbi-240" target="19SygxmWKAcVOHkyaGbi-173">
          <mxGeometry relative="1" as="geometry" />
        </mxCell>
        <mxCell id="19SygxmWKAcVOHkyaGbi-240" value="" style="ellipse;whiteSpace=wrap;html=1;aspect=fixed;fillColor=#d5e8d4;strokeColor=#82b366;" vertex="1" parent="1">
          <mxGeometry x="109.5" y="1010" width="20" height="20" as="geometry" />
        </mxCell>
        <mxCell id="19SygxmWKAcVOHkyaGbi-241" value="" style="ellipse;whiteSpace=wrap;html=1;aspect=fixed;fillColor=#d5e8d4;strokeColor=#82b366;" vertex="1" parent="1">
          <mxGeometry x="189.5" y="1010" width="20" height="20" as="geometry" />
        </mxCell>
        <mxCell id="19SygxmWKAcVOHkyaGbi-242" value="" style="ellipse;whiteSpace=wrap;html=1;aspect=fixed;fillColor=#d5e8d4;strokeColor=#82b366;" vertex="1" parent="1">
          <mxGeometry x="270.5" y="1010" width="20" height="20" as="geometry" />
        </mxCell>
        <mxCell id="19SygxmWKAcVOHkyaGbi-261" style="edgeStyle=none;shape=connector;rounded=0;orthogonalLoop=1;jettySize=auto;html=1;exitX=0.5;exitY=0;exitDx=0;exitDy=0;entryX=0.5;entryY=1;entryDx=0;entryDy=0;strokeColor=default;align=center;verticalAlign=middle;fontFamily=Helvetica;fontSize=11;fontColor=default;labelBackgroundColor=default;endArrow=none;endFill=0;" edge="1" parent="1" source="19SygxmWKAcVOHkyaGbi-243" target="19SygxmWKAcVOHkyaGbi-198">
          <mxGeometry relative="1" as="geometry" />
        </mxCell>
        <mxCell id="19SygxmWKAcVOHkyaGbi-243" value="" style="ellipse;whiteSpace=wrap;html=1;aspect=fixed;fillColor=#d5e8d4;strokeColor=#82b366;" vertex="1" parent="1">
          <mxGeometry x="230.5" y="1010" width="20" height="20" as="geometry" />
        </mxCell>
        <mxCell id="19SygxmWKAcVOHkyaGbi-244" value="" style="ellipse;whiteSpace=wrap;html=1;aspect=fixed;fillColor=#d5e8d4;strokeColor=#82b366;" vertex="1" parent="1">
          <mxGeometry x="310.5" y="1010" width="20" height="20" as="geometry" />
        </mxCell>
        <mxCell id="19SygxmWKAcVOHkyaGbi-249" style="edgeStyle=none;shape=connector;rounded=0;orthogonalLoop=1;jettySize=auto;html=1;exitX=0;exitY=1;exitDx=0;exitDy=0;entryX=1;entryY=0.267;entryDx=0;entryDy=0;entryPerimeter=0;strokeColor=default;align=center;verticalAlign=middle;fontFamily=Helvetica;fontSize=11;fontColor=default;labelBackgroundColor=default;endArrow=none;endFill=0;" edge="1" parent="1" source="19SygxmWKAcVOHkyaGbi-235" target="19SygxmWKAcVOHkyaGbi-151">
          <mxGeometry relative="1" as="geometry" />
        </mxCell>
        <mxCell id="19SygxmWKAcVOHkyaGbi-251" style="edgeStyle=none;shape=connector;rounded=0;orthogonalLoop=1;jettySize=auto;html=1;exitX=0;exitY=1;exitDx=0;exitDy=0;entryX=0.683;entryY=0.05;entryDx=0;entryDy=0;entryPerimeter=0;strokeColor=default;align=center;verticalAlign=middle;fontFamily=Helvetica;fontSize=11;fontColor=default;labelBackgroundColor=default;endArrow=none;endFill=0;" edge="1" parent="1" source="19SygxmWKAcVOHkyaGbi-230" target="19SygxmWKAcVOHkyaGbi-148">
          <mxGeometry relative="1" as="geometry" />
        </mxCell>
        <mxCell id="19SygxmWKAcVOHkyaGbi-253" style="edgeStyle=none;shape=connector;rounded=0;orthogonalLoop=1;jettySize=auto;html=1;exitX=1;exitY=1;exitDx=0;exitDy=0;entryX=0.2;entryY=0.017;entryDx=0;entryDy=0;entryPerimeter=0;strokeColor=default;align=center;verticalAlign=middle;fontFamily=Helvetica;fontSize=11;fontColor=default;labelBackgroundColor=default;endArrow=none;endFill=0;" edge="1" parent="1" source="19SygxmWKAcVOHkyaGbi-225" target="19SygxmWKAcVOHkyaGbi-122">
          <mxGeometry relative="1" as="geometry" />
        </mxCell>
        <mxCell id="19SygxmWKAcVOHkyaGbi-258" style="edgeStyle=none;shape=connector;rounded=0;orthogonalLoop=1;jettySize=auto;html=1;exitX=1;exitY=0;exitDx=0;exitDy=0;entryX=0.383;entryY=1.05;entryDx=0;entryDy=0;entryPerimeter=0;strokeColor=default;align=center;verticalAlign=middle;fontFamily=Helvetica;fontSize=11;fontColor=default;labelBackgroundColor=default;endArrow=none;endFill=0;" edge="1" parent="1" source="19SygxmWKAcVOHkyaGbi-239" target="19SygxmWKAcVOHkyaGbi-175">
          <mxGeometry relative="1" as="geometry" />
        </mxCell>
        <mxCell id="19SygxmWKAcVOHkyaGbi-260" style="edgeStyle=none;shape=connector;rounded=0;orthogonalLoop=1;jettySize=auto;html=1;exitX=0.5;exitY=0;exitDx=0;exitDy=0;entryX=0.483;entryY=0.9;entryDx=0;entryDy=0;entryPerimeter=0;strokeColor=default;align=center;verticalAlign=middle;fontFamily=Helvetica;fontSize=11;fontColor=default;labelBackgroundColor=default;endArrow=none;endFill=0;" edge="1" parent="1" source="19SygxmWKAcVOHkyaGbi-241" target="19SygxmWKAcVOHkyaGbi-170">
          <mxGeometry relative="1" as="geometry" />
        </mxCell>
        <mxCell id="19SygxmWKAcVOHkyaGbi-262" style="edgeStyle=none;shape=connector;rounded=0;orthogonalLoop=1;jettySize=auto;html=1;exitX=0;exitY=0;exitDx=0;exitDy=0;entryX=0.705;entryY=1.06;entryDx=0;entryDy=0;entryPerimeter=0;strokeColor=default;align=center;verticalAlign=middle;fontFamily=Helvetica;fontSize=11;fontColor=default;labelBackgroundColor=default;endArrow=none;endFill=0;" edge="1" parent="1" source="19SygxmWKAcVOHkyaGbi-242" target="19SygxmWKAcVOHkyaGbi-212">
          <mxGeometry relative="1" as="geometry" />
        </mxCell>
        <mxCell id="19SygxmWKAcVOHkyaGbi-263" style="edgeStyle=none;shape=connector;rounded=0;orthogonalLoop=1;jettySize=auto;html=1;exitX=0;exitY=0;exitDx=0;exitDy=0;entryX=0.848;entryY=1.06;entryDx=0;entryDy=0;entryPerimeter=0;strokeColor=default;align=center;verticalAlign=middle;fontFamily=Helvetica;fontSize=11;fontColor=default;labelBackgroundColor=default;endArrow=none;endFill=0;" edge="1" parent="1" source="19SygxmWKAcVOHkyaGbi-244" target="19SygxmWKAcVOHkyaGbi-214">
          <mxGeometry relative="1" as="geometry" />
        </mxCell>
        <mxCell id="19SygxmWKAcVOHkyaGbi-264" style="edgeStyle=none;shape=connector;rounded=0;orthogonalLoop=1;jettySize=auto;html=1;exitX=0;exitY=0;exitDx=0;exitDy=0;entryX=1.038;entryY=0.988;entryDx=0;entryDy=0;entryPerimeter=0;strokeColor=default;align=center;verticalAlign=middle;fontFamily=Helvetica;fontSize=11;fontColor=default;labelBackgroundColor=default;endArrow=none;endFill=0;" edge="1" parent="1" source="19SygxmWKAcVOHkyaGbi-238" target="19SygxmWKAcVOHkyaGbi-209">
          <mxGeometry relative="1" as="geometry" />
        </mxCell>
        <mxCell id="19SygxmWKAcVOHkyaGbi-266" value="Complex Network" style="text;html=1;align=center;verticalAlign=middle;whiteSpace=wrap;rounded=0;fontFamily=Helvetica;fontSize=20;fontColor=default;labelBackgroundColor=default;" vertex="1" parent="1">
          <mxGeometry x="80" y="720" width="280" height="30" as="geometry" />
        </mxCell>
        <mxCell id="19SygxmWKAcVOHkyaGbi-267" value="" style="ellipse;whiteSpace=wrap;html=1;aspect=fixed;fillColor=#f8cecc;strokeColor=#b85450;" vertex="1" parent="1">
          <mxGeometry x="396.88" y="835" width="20" height="20" as="geometry" />
        </mxCell>
        <mxCell id="19SygxmWKAcVOHkyaGbi-268" value="" style="ellipse;whiteSpace=wrap;html=1;aspect=fixed;fillColor=#ffe6cc;strokeColor=#d79b00;" vertex="1" parent="1">
          <mxGeometry x="396.88" y="875" width="20" height="20" as="geometry" />
        </mxCell>
        <mxCell id="19SygxmWKAcVOHkyaGbi-269" value="" style="ellipse;whiteSpace=wrap;html=1;aspect=fixed;fillColor=#fff2cc;strokeColor=#d6b656;" vertex="1" parent="1">
          <mxGeometry x="396.88" y="917" width="20" height="20" as="geometry" />
        </mxCell>
        <mxCell id="19SygxmWKAcVOHkyaGbi-270" value="" style="ellipse;whiteSpace=wrap;html=1;aspect=fixed;fillColor=#d5e8d4;strokeColor=#82b366;" vertex="1" parent="1">
          <mxGeometry x="396.88" y="957" width="20" height="20" as="geometry" />
        </mxCell>
        <mxCell id="19SygxmWKAcVOHkyaGbi-271" value="Hub" style="text;html=1;align=center;verticalAlign=middle;whiteSpace=wrap;rounded=0;fontFamily=Helvetica;fontSize=20;fontColor=default;labelBackgroundColor=default;" vertex="1" parent="1">
          <mxGeometry x="431.88" y="830" width="45" height="30" as="geometry" />
        </mxCell>
        <mxCell id="19SygxmWKAcVOHkyaGbi-272" value="Bleongs to multiple communities" style="text;html=1;align=center;verticalAlign=middle;whiteSpace=wrap;rounded=0;fontFamily=Helvetica;fontSize=20;fontColor=default;labelBackgroundColor=default;" vertex="1" parent="1">
          <mxGeometry x="430.63" y="870" width="292.5" height="30" as="geometry" />
        </mxCell>
        <mxCell id="19SygxmWKAcVOHkyaGbi-275" value="Active CommunityMember" style="text;html=1;align=center;verticalAlign=middle;whiteSpace=wrap;rounded=0;fontFamily=Helvetica;fontSize=20;fontColor=default;labelBackgroundColor=default;" vertex="1" parent="1">
          <mxGeometry x="430.63" y="912" width="246.25" height="30" as="geometry" />
        </mxCell>
        <mxCell id="19SygxmWKAcVOHkyaGbi-276" value="Community spectator" style="text;html=1;align=center;verticalAlign=middle;whiteSpace=wrap;rounded=0;fontFamily=Helvetica;fontSize=20;fontColor=default;labelBackgroundColor=default;" vertex="1" parent="1">
          <mxGeometry x="431.88" y="952" width="195" height="30" as="geometry" />
        </mxCell>
        <mxCell id="19SygxmWKAcVOHkyaGbi-279" value="" style="rounded=1;whiteSpace=wrap;html=1;fontFamily=Helvetica;fontSize=11;fontColor=default;labelBackgroundColor=default;dashed=1;dashPattern=8 8;fillColor=none;strokeColor=#9933FF;strokeWidth=2;" vertex="1" parent="1">
          <mxGeometry x="80" y="760" width="140" height="130" as="geometry" />
        </mxCell>
      </root>
    </mxGraphModel>
  </diagram>
</mxfile>
